<svg width="1255" height="849" viewBox="0 0 1255 849" fill="none" xmlns="http://www.w3.org/2000/svg">
<g clip-path="url(#clip0_2217_385)">
<mask id="mask0_2217_385" style="mask-type:luminance" maskUnits="userSpaceOnUse" x="0" y="-7" width="707" height="857">
<path d="M707 -7H0V850H707V-7Z" fill="white"/>
</mask>
<g mask="url(#mask0_2217_385)">
<path d="M306.758 928.277L336.385 889.397L366.011 850.517L395.638 811.638L425.265 772.758L454.892 733.878L484.518 694.999L514.145 656.119L543.772 617.239L573.391 578.356L603.018 539.477L632.645 500.597L662.272 461.717L691.898 422.838L721.525 383.958L751.152 345.078L780.778 306.199L810.405 267.319L840.032 228.439L869.658 189.556L899.285 150.677L928.912 111.797L958.538 72.9174L988.165 34.0378L1017.79 -4.83646L1047.42 -43.7161L1077.04 -82.5958L1106.67 -121.479L1136.3 -160.359L1165.93 -199.244L1195.55 -238.122L1225.17 -277.005L1254.8 -315.885L1284.43 -354.764H1254.8L1225.17 -315.885L1195.55 -277.005L1165.93 -238.122L1136.3 -199.242L1106.67 -160.362L1077.05 -121.483L1047.42 -82.603L1017.79 -43.7233L988.165 -4.84372L958.538 34.036L928.912 72.9156L899.285 111.795L869.658 150.677L840.032 189.556L810.405 228.436L780.778 267.315L751.152 306.195L721.525 345.075L691.898 383.954L662.272 422.834L632.645 461.714L603.018 500.593L573.391 539.473L543.765 578.353L514.138 617.232L484.511 656.112L454.885 694.991L425.258 733.871L395.631 772.751L366.005 811.63L336.378 850.51L306.751 889.39L277.124 928.269L247.498 967.149L217.871 1006.03H247.498L277.124 967.149L306.758 928.277Z" fill="#5E66EA"/>
<path d="M247.506 928.276L277.133 889.397L306.761 850.515L336.388 811.636L366.014 772.756L395.641 733.876L425.268 694.997L454.894 656.117L484.521 617.237L514.148 578.358L543.774 539.478L573.401 500.599L603.028 461.715L632.655 422.836L662.281 383.956L691.908 345.076L721.535 306.197L751.161 267.317L780.788 228.438L810.415 189.558L840.041 150.678L869.668 111.799L899.295 72.9191L928.921 34.0395L958.539 -4.83655L988.161 -43.7234L1017.79 -82.603L1047.42 -121.479L1077.04 -160.359L1106.67 -199.238L1136.3 -238.122L1165.92 -277.001L1195.55 -315.881L1225.18 -354.764H1195.55L1165.92 -315.885L1136.3 -277.005L1106.67 -238.122L1077.04 -199.242L1047.42 -160.362L1017.79 -121.483L988.164 -82.603L958.537 -43.7234L928.91 -4.84378L899.284 34.0359L869.657 72.9155L840.03 111.795L810.404 150.675L780.777 189.554L751.15 228.434L721.524 267.314L691.897 306.193L662.27 345.073L632.644 383.953L603.028 422.836L573.401 461.715L543.774 500.595L514.148 539.475L484.521 578.354L454.894 617.234L425.268 656.113L395.641 694.993L366.014 733.873L336.388 772.752L306.761 811.632L277.134 850.512L247.508 889.391L217.881 928.271L188.254 967.151L158.627 1006.03H188.254L217.881 967.151L247.506 928.276Z" fill="#5E66EA"/>
<path d="M188.254 928.277L217.881 889.397L247.507 850.517L277.134 811.638L306.761 772.758L336.387 733.878L366.014 694.999L395.641 656.119L425.262 617.236L454.889 578.356L484.515 539.477L514.142 500.597L543.769 461.716L573.396 422.836L603.022 383.956L632.649 345.077L662.276 306.197L691.902 267.317L721.529 228.436L751.156 189.556L780.782 150.677L810.409 111.797L840.036 72.9174L869.662 34.0378L899.285 -4.83646L928.912 -43.7161L958.538 -82.5957L988.165 -121.479L1017.8 -160.364L1047.42 -199.244L1077.04 -238.122L1106.67 -277.001L1136.3 -315.881L1165.92 -354.764H1136.3L1106.67 -315.885L1077.04 -277.005L1047.42 -238.122L1017.8 -199.244L988.169 -160.364L958.543 -121.484L928.916 -82.6048L899.289 -43.7251L869.662 -4.84546L840.036 34.0342L810.409 72.9138L780.782 111.793L751.156 150.673L721.529 189.553L691.902 228.432L662.276 267.312L632.649 306.192L603.022 345.071L573.396 383.951L543.769 422.831L514.142 461.71L484.515 500.59L454.889 539.469L425.262 578.349L395.635 617.229L366.009 656.108L336.382 694.988L306.755 733.868L277.128 772.747L247.502 811.627L217.875 850.507L188.248 889.386L158.622 928.266L128.995 967.156L99.3682 1006.04H128.995L158.622 967.156L188.254 928.277Z" fill="#5E66EA"/>
<path d="M129.001 928.276L158.63 889.397L188.257 850.517L217.883 811.637L247.51 772.758L277.137 733.878L306.763 694.999L336.39 656.119L366.017 617.239L395.644 578.36L425.27 539.48L454.897 500.597L484.524 461.717L514.15 422.838L543.763 383.956L573.39 345.076L603.017 306.197L632.643 267.317L662.27 228.438L691.897 189.558L721.524 150.678L751.15 111.799L780.777 72.9191L810.404 34.0395L840.03 -4.83655L869.657 -43.7162L899.284 -82.5958L928.912 -121.479L958.538 -160.359L988.164 -199.244L1017.79 -238.122L1047.42 -277.005L1077.04 -315.885L1106.67 -354.764H1077.04L1047.42 -315.885L1017.79 -277.005L988.164 -238.122L958.537 -199.242L928.91 -160.362L899.284 -121.483L869.657 -82.603L840.03 -43.7234L810.404 -4.84378L780.777 34.0359L751.15 72.9155L721.524 111.795L691.897 150.675L662.27 189.554L632.643 228.434L603.017 267.314L573.39 306.193L543.763 345.073L514.137 383.953L484.51 422.832L454.897 461.715L425.27 500.595L395.644 539.475L366.017 578.354L336.39 617.234L306.763 656.113L277.137 694.993L247.51 733.873L217.883 772.752L188.257 811.632L158.63 850.512L129.003 889.391L99.3764 928.271L69.7497 967.151L40.123 1006.03H69.7497L99.3764 967.151L129.001 928.276Z" fill="#5E66EA"/>
<path d="M69.7466 928.276L99.3733 889.397L128.999 850.517L158.626 811.638L188.253 772.758L217.879 733.878L247.506 694.999L277.13 656.115L306.757 617.236L336.384 578.356L366.01 539.477L395.637 500.597L425.264 461.717L454.89 422.838L484.517 383.958L514.144 345.078L543.77 306.199L573.397 267.315L603.024 228.436L632.651 189.556L662.277 150.677L691.904 111.797L721.531 72.9174L751.157 34.0377L780.779 -4.83649L810.405 -43.7161L840.032 -82.5958L869.664 -121.479L899.291 -160.359L928.918 -199.238L958.531 -238.122L988.157 -277.001L1017.78 -315.881L1047.42 -354.764H1017.79L988.161 -315.885L958.531 -277.005L928.909 -238.122L899.283 -199.242L869.656 -160.362L840.029 -121.483L810.403 -82.603L780.776 -43.7233L751.149 -4.84372L721.522 34.0359L691.896 72.9156L662.269 111.795L632.642 150.675L603.016 189.554L573.389 228.434L543.762 267.314L514.136 306.193L484.509 345.073L454.882 383.953L425.255 422.832L395.629 461.712L366.002 500.591L336.375 539.471L306.749 578.351L277.122 617.23L247.495 656.11L217.869 694.99L188.242 733.869L158.615 772.749L128.989 811.629L99.3623 850.508L69.7356 889.388L40.1089 928.267L10.4823 967.147L-19.1445 1006.03H10.4823L40.1089 967.147L69.7466 928.276Z" fill="#5E66EA"/>
<path d="M10.5002 928.277L40.1269 889.397L69.7536 850.517L99.3804 811.638L129.008 772.758L158.634 733.878L188.261 694.999L217.888 656.119L247.514 617.239L277.141 578.36L306.768 539.48L336.394 500.601L366.021 461.721L395.634 422.836L425.261 383.956L454.887 345.077L484.514 306.197L514.141 267.317L543.768 228.438L573.394 189.558L603.021 150.678L632.648 111.799L662.274 72.9192L691.901 34.036L721.528 -4.83646L751.154 -43.7233L780.781 -82.603L810.406 -121.479L840.033 -160.359L869.66 -199.238L899.285 -238.122L928.911 -277.001L958.539 -315.881L988.168 -354.764H958.541L928.915 -315.885L899.288 -277.005L869.66 -238.122L840.033 -199.242L810.406 -160.362L780.781 -121.479L751.154 -82.5994L721.528 -43.7197L691.901 -4.83646L662.274 34.0432L632.648 72.9228L603.021 111.802L573.394 150.682L543.768 189.562L514.141 228.441L484.514 267.321L454.887 306.201L425.261 345.08L395.634 383.96L366.007 422.839L336.381 461.719L306.754 500.599L277.127 539.478L247.501 578.358L217.874 617.238L188.247 656.117L158.621 694.997L128.994 733.877L99.3666 772.756L69.7399 811.636L40.1132 850.516L10.4866 889.395L-19.1402 928.275L-48.7669 967.154L-78.3936 1006.03H-48.7669L-19.1402 967.154L10.5002 928.277Z" fill="#5E66EA"/>
<path d="M-48.7572 928.276L-19.1305 889.397L10.4962 850.517L40.123 811.638L69.7483 772.756L99.375 733.877L129.002 694.995L158.629 656.115L188.255 617.236L217.882 578.356L247.509 539.477L277.135 500.597L306.762 461.717L336.389 422.838L366.016 383.958L395.642 345.078L425.269 306.197L454.896 267.317L484.522 228.438L514.149 189.558L543.776 150.678L573.402 111.799L603.029 72.9192L632.656 34.0395L662.274 -4.83649L691.901 -43.7161L721.528 -82.5958L751.154 -121.479L780.781 -160.359L810.402 -199.244L840.033 -238.122L869.66 -277.001L899.287 -315.881L928.912 -354.764H899.285L869.658 -315.885L840.032 -277.005L810.402 -238.122L780.776 -199.242L751.149 -160.362L721.522 -121.483L691.896 -82.603L662.269 -43.7233L632.642 -4.84372L603.015 34.0359L573.389 72.9156L543.762 111.795L514.135 150.675L484.509 189.554L454.882 228.434L425.255 267.314L395.629 306.193L366.002 345.073L336.375 383.953L306.748 422.832L277.122 461.712L247.495 500.591L217.868 539.471L188.242 578.351L158.615 617.23L128.988 656.11L99.3612 694.99L69.7345 733.869L40.1079 772.749L10.4812 811.629L-19.1455 850.508L-48.7723 889.388L-78.399 928.267L-108.025 967.147V1006.03L-78.399 967.147L-48.7572 928.276Z" fill="#5E66EA"/>
<path d="M-48.7642 850.515L-19.1373 811.636L10.4892 772.756L40.1159 733.876L69.7427 694.997L99.3693 656.117L128.997 617.238L158.623 578.358L188.25 539.478L217.877 500.599L247.503 461.715L277.13 422.836L306.757 383.956L336.383 345.076L366.01 306.197L395.637 267.317L425.264 228.438L454.89 189.558L484.517 150.678L514.143 111.799L543.77 72.9155L573.396 34.0359L603.021 -4.83652L632.648 -43.7161L662.276 -82.5958L691.901 -121.479L721.528 -160.359L751.154 -199.238L780.78 -238.122L810.406 -277.001L840.036 -315.885L869.658 -354.764H840.036L810.411 -315.885L780.784 -277.005L751.153 -238.122L721.526 -199.242L691.9 -160.362L662.273 -121.483L632.646 -82.603L603.02 -43.7234L573.393 -4.84375L543.766 34.0359L514.138 72.9155L484.513 111.795L454.885 150.675L425.259 189.554L395.633 228.434L366.006 267.314L336.379 306.193L306.753 345.073L277.126 383.953L247.499 422.832L217.873 461.712L188.246 500.591L158.619 539.471L128.992 578.351L99.3653 617.23L69.7385 656.11L40.1119 694.99L10.4851 733.869L-19.1416 772.749L-48.7681 811.629L-78.395 850.508L-108.021 889.388V928.267L-78.395 889.388L-48.7642 850.515Z" fill="#5E66EA"/>
<path d="M-48.7573 772.756L-19.1279 733.876L10.4988 694.997L40.1254 656.117L69.7522 617.238L99.3788 578.358L129.006 539.478L158.633 500.599L188.259 461.719L217.886 422.839L247.513 383.96L277.14 345.076L306.766 306.197L336.393 267.317L366.006 228.436L395.633 189.556L425.259 150.677L454.885 111.797L484.513 72.9173L514.138 34.0377L543.77 -4.83652L573.396 -43.7161L603.023 -82.5958L632.648 -121.479L662.273 -160.364L691.9 -199.244L721.528 -238.122L751.154 -277.001L780.781 -315.881L810.406 -354.764H780.78L751.153 -315.885L721.526 -277.005L691.901 -238.122L662.273 -199.244L632.646 -160.364L603.018 -121.485L573.393 -82.6048L543.766 -43.7252L514.138 -4.84555L484.513 34.0341L454.885 72.9137L425.259 111.793L395.633 150.673L366.006 189.553L336.379 228.432L306.752 267.312L277.126 306.191L247.499 345.071L217.872 383.951L188.246 422.83L158.619 461.71L128.992 500.59L99.365 539.469L69.7384 578.349L40.1118 617.229L10.485 656.108L-19.1416 694.988L-48.7684 733.867L-78.395 772.747L-108.021 811.627V850.506L-78.395 811.627L-48.7573 772.756Z" fill="#5E66EA"/>
<path d="M-48.7575 694.995L-19.1309 656.115L10.4958 617.236L40.1225 578.356L69.7492 539.477L99.3731 500.597L129 461.715L158.626 422.836L188.253 383.956L217.88 345.076L247.506 306.197L277.133 267.317L306.76 228.438L336.386 189.558L366.013 150.678L395.64 111.795L425.267 72.9155L454.893 34.0359L484.516 -4.83652L514.143 -43.7161L543.769 -82.5958L573.395 -121.479L603.021 -160.359L632.648 -199.238L662.273 -238.122L691.907 -277.005L721.534 -315.885L751.153 -354.764H721.527L691.907 -315.885L662.28 -277.005L632.648 -238.122L603.021 -199.242L573.395 -160.362L543.768 -121.483L514.141 -82.603L484.515 -43.7234L454.888 -4.84375L425.261 34.0359L395.64 72.9155L366.013 111.795L336.386 150.675L306.76 189.554L277.133 228.434L247.506 267.314L217.88 306.193L188.253 345.073L158.626 383.953L129 422.832L99.3731 461.715L69.7464 500.595L40.1197 539.475L10.4931 578.354L-19.1336 617.234L-48.7603 656.114L-78.387 694.993L-108.014 733.873V772.756L-78.387 733.876L-48.7575 694.995Z" fill="#5E66EA"/>
<path d="M-48.7574 617.236L-19.1307 578.356L10.496 539.477L40.1228 500.597L69.7495 461.717L99.3761 422.838L129.002 383.958L158.629 345.078L188.256 306.199L217.874 267.315L247.501 228.436L277.128 189.556L306.754 150.677L336.381 111.797L366.008 72.9174L395.634 34.0378L425.262 -4.83646L454.889 -43.7161L484.516 -82.5958L514.141 -121.479L543.768 -160.359L573.395 -199.244L603.021 -238.122L632.648 -277.005L662.275 -315.885L691.9 -354.764H662.273L632.647 -315.885L603.02 -277.005L573.395 -238.122L543.768 -199.242L514.141 -160.362L484.515 -121.483L454.888 -82.603L425.261 -43.7233L395.634 -4.84372L366.008 34.036L336.381 72.9156L306.754 111.795L277.128 150.675L247.501 189.554L217.874 228.434L188.248 267.314L158.621 306.193L128.994 345.073L99.3678 383.953L69.7412 422.832L40.1145 461.712L10.4878 500.592L-19.1388 539.471L-48.7657 578.351L-78.3923 617.23L-108.019 656.11V694.99L-78.3923 656.11L-48.7574 617.236Z" fill="#5E66EA"/>
<path d="M-48.7574 539.477L-19.1307 500.597L10.496 461.717L40.1227 422.838L69.7493 383.958L99.376 345.078L129.002 306.199L158.629 267.319L188.256 228.439L217.882 189.56L247.509 150.677L277.136 111.797L306.763 72.9174L336.389 34.0378L366.011 -4.83646L395.637 -43.7161L425.264 -82.5958L454.889 -121.479L484.516 -160.359L514.143 -199.238L543.768 -238.122L573.395 -277.001L603.021 -315.881L632.642 -354.764H603.016L573.389 -315.885L543.762 -277.005L514.141 -238.122L484.514 -199.242L454.888 -160.362L425.261 -121.483L395.634 -82.603L366.008 -43.7233L336.381 -4.84372L306.754 34.036L277.128 72.9156L247.501 111.795L217.874 150.675L188.248 189.554L158.621 228.434L128.994 267.314L99.368 306.193L69.7412 345.073L40.1145 383.953L10.4877 422.832L-19.139 461.712L-48.7657 500.592L-78.3923 539.471L-108.019 578.351V617.23L-78.3923 578.351L-48.7574 539.477Z" fill="#5E66EA"/>
<path d="M-48.7575 461.716L-19.1308 422.836L10.4958 383.956L40.1226 345.077L69.7451 306.197L99.3719 267.317L128.998 228.438L158.625 189.558L188.252 150.678L217.878 111.799L247.505 72.9192L277.132 34.0396L306.758 -4.83646L336.385 -43.7233L366.012 -82.6048L395.637 -121.479L425.264 -160.359L454.89 -199.238L484.516 -238.122L514.143 -277.001L543.769 -315.881L573.396 -354.764H543.769L514.143 -315.885L484.516 -277.005L454.889 -238.122L425.262 -199.242L395.636 -160.362L366.012 -121.479L336.385 -82.5994L306.758 -43.7197L277.132 -4.83646L247.505 34.0432L217.878 72.9228L188.252 111.802L158.625 150.682L128.998 189.562L99.3719 228.441L69.7451 267.321L40.1185 306.201L10.4918 345.08L-19.1349 383.96L-48.7617 422.839L-78.3884 461.719L-108.015 500.599V539.478L-78.3884 500.599L-48.7575 461.716Z" fill="#5E66EA"/>
<path d="M-48.7572 383.956L-19.1305 345.076L10.4961 306.197L40.1228 267.317L69.7495 228.438L99.3804 189.556L129.007 150.677L158.633 111.797L188.246 72.9155L217.873 34.0359L247.505 -4.83652L277.132 -43.7161L306.759 -82.5958L336.384 -121.479L366.011 -160.359L395.637 -199.238L425.264 -238.122L454.891 -277.001L484.513 -315.885L514.143 -354.764H484.513L454.887 -315.885L425.26 -277.005L395.637 -238.122L366.011 -199.242L336.384 -160.362L306.757 -121.483L277.131 -82.603L247.504 -43.7234L217.877 -4.84375L188.25 34.0359L158.624 72.9155L128.997 111.795L99.3708 150.675L69.7441 189.554L40.1174 228.434L10.4907 267.314L-19.136 306.193L-48.7627 345.073L-78.3895 383.953L-108.017 422.832V461.715L-78.3895 422.836L-48.7572 383.956Z" fill="#5E66EA"/>
<path d="M-48.7588 306.197L-19.1321 267.317L10.4946 228.438L40.1213 189.558L69.7479 150.678L99.3746 111.799L129.001 72.9192L158.628 34.0396L188.252 -4.83646L217.881 -43.7233L247.508 -82.603L277.132 -121.479L306.758 -160.359L336.385 -199.238L366.01 -238.122L395.637 -277.001L425.264 -315.881L454.889 -354.764H425.262L395.636 -315.885L366.009 -277.005L336.384 -238.122L306.757 -199.242L277.13 -160.362L247.504 -121.483L217.877 -82.603L188.25 -43.7233L158.624 -4.84372L128.997 34.036L99.3705 72.9156L69.7438 111.795L40.1171 150.675L10.4904 189.554L-19.1362 228.434L-48.7629 267.314L-78.3896 306.193L-108.017 345.073V383.953L-78.3855 345.077L-48.7588 306.197Z" fill="#5E66EA"/>
<path d="M-48.7587 228.436L-19.132 189.556L10.4947 150.677L40.1159 111.795L69.7425 72.9155L99.3692 34.0359L129 -4.83652L158.626 -43.7161L188.253 -82.5958L217.878 -121.479L247.505 -160.359L277.132 -199.238L306.757 -238.122L336.382 -277.005L366.009 -315.885L395.636 -354.764H366.009L336.382 -315.885L306.756 -277.005L277.13 -238.122L247.504 -199.242L217.877 -160.362L188.25 -121.483L158.624 -82.603L128.997 -43.7234L99.3706 -4.84375L69.744 34.0359L40.1173 72.9155L10.4905 111.795L-19.1362 150.675L-48.7629 189.554L-78.3895 228.434L-108.017 267.314V306.193L-78.3895 267.314L-48.7587 228.436Z" fill="#5E66EA"/>
<path d="M-48.7576 150.676L-19.1309 111.797L10.4958 72.9173L40.1225 34.0377L69.7519 -4.83655L99.3786 -43.7162L129.005 -82.5958L158.626 -121.479L188.253 -160.359L217.88 -199.238L247.505 -238.122L277.132 -277.001L306.758 -315.881L336.384 -354.764H306.757L277.13 -315.885L247.504 -277.005L217.88 -238.122L188.253 -199.242L158.626 -160.362L129 -121.483L99.3732 -82.603L69.7519 -43.7234L40.1253 -4.84378L10.4986 34.0359L-19.1281 72.9155L-48.7548 111.795L-78.3815 150.675L-108.008 189.554V228.434L-78.3815 189.554L-48.7576 150.676Z" fill="#5E66EA"/>
<path d="M-48.7575 72.9155L-19.1308 34.0359L10.4945 -4.83652L40.1212 -43.7161L69.7479 -82.5958L99.3732 -121.479L129 -160.359L158.626 -199.244L188.253 -238.122L217.88 -277.001L247.506 -315.881L277.132 -354.764H247.505L217.878 -315.885L188.253 -277.005L158.626 -238.122L129 -199.242L99.3732 -160.362L69.7465 -121.483L40.1198 -82.603L10.4931 -43.7234L-19.1336 -4.84375L-48.7603 34.0359L-78.387 72.9155L-108.014 111.795V150.675L-78.387 111.795L-48.7575 72.9155Z" fill="#5E66EA"/>
<path d="M-48.7591 -4.83649L-19.1324 -43.7161L10.4874 -82.6048L40.121 -121.479L69.7476 -160.359L99.3743 -199.238L129 -238.122L158.626 -277.001L188.253 -315.881L217.878 -354.764H188.252L158.625 -315.885L128.998 -277.005L99.373 -238.122L69.7463 -199.242L40.1196 -160.362L10.4874 -121.479L-19.1393 -82.5994L-48.766 -43.7197L-78.379 -4.83649L-108.006 34.0431V72.9228L-78.379 34.0359L-48.7591 -4.83649Z" fill="#5E66EA"/>
<path d="M662.274 928.276L691.906 889.397L721.533 850.517L751.16 811.638L780.786 772.758L810.413 733.878L840.04 694.999L869.667 656.119L899.293 617.239L928.92 578.36L958.547 539.48L988.173 500.601L1017.8 461.721L1047.43 422.841L1077.04 383.956L1106.67 345.077L1136.29 306.197L1165.92 267.317L1195.55 228.438L1225.17 189.558L1254.8 150.678L1284.43 111.799L1314.05 72.9191L1343.68 34.0448L1373.31 -4.84381V-43.7234L1343.68 -4.84381L1314.05 34.0448L1284.43 72.9245L1254.8 111.804L1225.17 150.684L1195.55 189.563L1165.92 228.443L1136.29 267.323L1106.67 306.202L1077.04 345.082L1047.41 383.962L1017.79 422.841L988.161 461.721L958.534 500.601L928.908 539.48L899.281 578.36L869.654 617.239L840.028 656.119L810.401 694.999L780.774 733.878L751.147 772.758L721.521 811.638L691.894 850.517L662.267 889.397L632.641 928.276L603.014 967.156L573.387 1006.04H603.014L632.641 967.156L662.274 928.276Z" fill="#5E66EA"/>
<path d="M603.021 928.277L632.648 889.397L662.273 850.512L691.906 811.636L721.533 772.756L751.154 733.869L780.781 694.99L810.408 656.11L840.034 617.23L869.661 578.351L899.288 539.471L928.914 500.591L958.541 461.712L988.168 422.832L1017.79 383.953L1047.42 345.073L1077.04 306.197L1106.67 267.317L1136.29 228.438L1165.92 189.558L1195.55 150.678L1225.17 111.799L1254.8 72.9192L1284.43 34.0395L1314.05 -4.8401L1343.68 -43.7234L1373.31 -82.6048V-121.485L1343.68 -82.6048L1314.05 -43.7252L1284.43 -4.84551L1254.8 34.0341L1225.17 72.9137L1195.55 111.793L1165.92 150.673L1136.29 189.553L1106.67 228.432L1077.04 267.312L1047.41 306.191L1017.79 345.071L988.159 383.951L958.533 422.83L928.906 461.71L899.28 500.59L869.653 539.469L840.026 578.349L810.4 617.229L780.773 656.108L751.146 694.988L721.518 733.868L691.906 772.756L662.28 811.636L632.653 850.516L603.026 889.395L573.4 928.275L543.773 967.154L514.146 1006.03H543.773L573.396 967.154L603.021 928.277Z" fill="#5E66EA"/>
<path d="M543.769 928.275L573.396 889.395L603.022 850.515L632.649 811.636L662.276 772.756L691.906 733.875L721.533 694.995L751.16 656.115L780.787 617.236L810.413 578.356L840.04 539.477L869.667 500.597L899.293 461.717L928.92 422.838L958.547 383.958L988.173 345.078L1017.8 306.199L1047.43 267.319L1077.04 228.436L1106.67 189.556L1136.29 150.676L1165.92 111.797L1195.55 72.9174L1225.17 34.0378L1254.8 -4.84192L1284.43 -43.718L1314.05 -82.6047L1343.68 -121.485L1373.31 -160.361V-199.246L1343.68 -160.361L1314.05 -121.481L1284.43 -82.6012L1254.8 -43.718L1225.17 -4.8383L1195.55 34.0414L1165.92 72.921L1136.29 111.8L1106.67 150.68L1077.04 189.56L1047.41 228.439L1017.79 267.319L988.161 306.199L958.534 345.078L928.908 383.958L899.281 422.838L869.654 461.717L840.028 500.597L810.401 539.477L780.774 578.356L751.148 617.236L721.521 656.115L691.894 694.995L662.267 733.875L632.641 772.754L603.014 811.634L573.387 850.514L543.761 889.393L514.134 928.273L484.507 967.153L454.881 1006.03H484.507L514.134 967.153L543.769 928.275Z" fill="#5E66EA"/>
<path d="M484.517 928.277L514.144 889.393L543.77 850.514L573.397 811.634L603.022 772.751L632.649 733.871L662.276 694.992L691.907 656.108L721.533 617.229L751.16 578.349L780.787 539.469L810.413 500.59L840.04 461.71L869.667 422.831L899.293 383.951L928.92 345.071L958.547 306.192L988.173 267.312L1017.8 228.432L1047.43 189.553L1077.04 150.677L1106.67 111.797L1136.29 72.9174L1165.92 34.0377L1195.55 -4.84195L1225.17 -43.7215L1254.8 -82.6012L1284.43 -121.481L1314.05 -160.364L1343.68 -199.244L1373.31 -238.123V-277.003L1343.68 -238.123L1314.05 -199.244L1284.43 -160.364L1254.8 -121.485L1225.17 -82.6048L1195.55 -43.7252L1165.92 -4.84555L1136.29 34.0341L1106.67 72.9138L1077.04 111.793L1047.41 150.673L1017.79 189.553L988.16 228.432L958.533 267.312L928.906 306.192L899.28 345.071L869.653 383.951L840.026 422.831L810.4 461.71L780.773 500.59L751.146 539.469L721.52 578.349L691.893 617.229L662.266 656.108L632.639 694.988L603.013 733.868L573.386 772.747L543.759 811.627L514.133 850.507L484.517 889.393L454.89 928.273L425.264 967.153L395.64 1006.04H425.266L454.893 967.156L484.517 928.277Z" fill="#5E66EA"/>
<path d="M366.011 928.277L395.638 889.397L425.265 850.517L454.89 811.636L484.517 772.756L514.143 733.877L543.77 694.997L573.397 656.117L603.023 617.238L632.65 578.358L662.277 539.478L691.904 500.599L721.53 461.719L751.157 422.836L780.784 383.956L810.41 345.077L840.037 306.197L869.664 267.317L899.291 228.438L928.917 189.558L958.544 150.678L988.171 111.799L1017.8 72.9192L1047.42 34.0396L1077.04 -4.83646L1106.67 -43.7161L1136.29 -82.6048L1165.92 -121.479L1195.55 -160.359L1225.18 -199.238L1254.8 -238.122L1284.43 -277.005L1314.05 -315.885L1343.68 -354.764H1314.05L1284.43 -315.885L1254.8 -277.005L1225.17 -238.122L1195.55 -199.242L1165.92 -160.362L1136.29 -121.479L1106.66 -82.5994L1077.04 -43.7197L1047.41 -4.84009L1017.78 34.0396L988.157 72.9192L958.53 111.799L928.904 150.678L899.277 189.558L869.65 228.438L840.023 267.317L810.397 306.197L780.77 345.077L751.143 383.956L721.517 422.836L691.89 461.716L662.263 500.595L632.636 539.475L603.01 578.354L573.383 617.234L543.756 656.114L514.13 694.993L484.503 733.873L454.89 772.756L425.263 811.636L395.637 850.516L366.01 889.395L336.383 928.275L306.756 967.154L277.13 1006.03H306.756L336.383 967.154L366.011 928.277Z" fill="#5E66EA"/>
<path d="M425.265 928.276L454.892 889.397L484.518 850.517L514.145 811.638L543.772 772.758L573.398 733.878L603.025 694.999L632.652 656.119L662.278 617.239L691.907 578.356L721.533 539.477L751.16 500.597L780.787 461.717L810.413 422.838L840.04 383.958L869.667 345.078L899.293 306.199L928.92 267.319L958.547 228.439L988.173 189.56L1017.8 150.68L1047.43 111.801L1077.04 72.9156L1106.67 34.0359L1136.3 -4.83649L1165.92 -43.7161L1195.55 -82.5958L1225.17 -121.479L1254.8 -160.359L1284.43 -199.244L1314.05 -238.122L1343.68 -277.005L1373.31 -315.885V-354.764L1343.68 -315.885L1314.05 -277.005L1284.43 -238.122L1254.8 -199.242L1225.17 -160.362L1195.55 -121.483L1165.92 -82.603L1136.29 -43.7233L1106.67 -4.84372L1077.04 34.0359L1047.41 72.9156L1017.79 111.795L988.161 150.675L958.534 189.554L928.908 228.434L899.281 267.314L869.654 306.193L840.028 345.073L810.401 383.953L780.774 422.832L751.148 461.712L721.521 500.591L691.894 539.471L662.267 578.351L632.641 617.23L603.014 656.11L573.387 694.99L543.761 733.869L514.134 772.749L484.507 811.629L454.881 850.508L425.254 889.388L395.627 928.267L366.001 967.147L336.374 1006.03H366.001L395.64 967.156L425.265 928.276Z" fill="#5E66EA"/>
</g>
</g>
<g clip-path="url(#clip1_2217_385)">
<mask id="mask1_2217_385" style="mask-type:luminance" maskUnits="userSpaceOnUse" x="627" y="-52" width="707" height="857">
<path d="M1334 -52H627V805H1334V-52Z" fill="white"/>
</mask>
<g mask="url(#mask1_2217_385)">
<path d="M933.758 883.277L963.385 844.397L993.011 805.517L1022.64 766.638L1052.27 727.758L1081.89 688.878L1111.52 649.999L1141.15 611.119L1170.77 572.239L1200.39 533.356L1230.02 494.477L1259.65 455.597L1289.27 416.717L1318.9 377.838L1348.53 338.958L1378.15 300.078L1407.78 261.199L1437.41 222.319L1467.03 183.439L1496.66 144.556L1526.29 105.677L1555.91 66.7971L1585.54 27.9174L1615.17 -10.9622L1644.79 -49.8365L1674.42 -88.7161L1704.04 -127.596L1733.67 -166.479L1763.3 -205.359L1792.93 -244.244L1822.55 -283.122L1852.17 -322.005L1881.8 -360.885L1911.43 -399.764H1881.8L1852.17 -360.885L1822.55 -322.005L1792.93 -283.122L1763.3 -244.242L1733.67 -205.362L1704.05 -166.483L1674.42 -127.603L1644.79 -88.7233L1615.17 -49.8437L1585.54 -10.964L1555.91 27.9156L1526.29 66.7951L1496.66 105.677L1467.03 144.556L1437.41 183.436L1407.78 222.315L1378.15 261.195L1348.53 300.075L1318.9 338.954L1289.27 377.834L1259.65 416.714L1230.02 455.593L1200.39 494.473L1170.77 533.353L1141.14 572.232L1111.51 611.112L1081.89 649.991L1052.26 688.871L1022.63 727.751L993.005 766.63L963.378 805.51L933.751 844.39L904.124 883.269L874.498 922.149L844.871 961.03H874.498L904.124 922.149L933.758 883.277Z" fill="#5E66EA"/>
<path d="M874.506 883.276L904.133 844.397L933.761 805.515L963.388 766.636L993.014 727.756L1022.64 688.876L1052.27 649.997L1081.89 611.117L1111.52 572.237L1141.15 533.358L1170.77 494.478L1200.4 455.599L1230.03 416.715L1259.65 377.836L1289.28 338.956L1318.91 300.076L1348.53 261.197L1378.16 222.317L1407.79 183.438L1437.41 144.558L1467.04 105.678L1496.67 66.7991L1526.29 27.9191L1555.92 -10.9605L1585.54 -49.8365L1615.16 -88.7234L1644.79 -127.603L1674.42 -166.479L1704.04 -205.359L1733.67 -244.238L1763.3 -283.122L1792.92 -322.001L1822.55 -360.881L1852.18 -399.764H1822.55L1792.92 -360.885L1763.3 -322.005L1733.67 -283.122L1704.04 -244.242L1674.42 -205.362L1644.79 -166.483L1615.16 -127.603L1585.54 -88.7234L1555.91 -49.8438L1526.28 -10.9641L1496.66 27.9155L1467.03 66.7951L1437.4 105.675L1407.78 144.554L1378.15 183.434L1348.52 222.314L1318.9 261.193L1289.27 300.073L1259.64 338.953L1230.03 377.836L1200.4 416.715L1170.77 455.595L1141.15 494.475L1111.52 533.354L1081.89 572.234L1052.27 611.113L1022.64 649.993L993.014 688.873L963.388 727.752L933.761 766.632L904.134 805.512L874.508 844.391L844.881 883.271L815.254 922.151L785.627 961.03H815.254L844.881 922.151L874.506 883.276Z" fill="#5E66EA"/>
<path d="M815.254 883.277L844.881 844.397L874.507 805.517L904.134 766.638L933.761 727.758L963.387 688.878L993.014 649.999L1022.64 611.119L1052.26 572.236L1081.89 533.356L1111.51 494.477L1141.14 455.597L1170.77 416.716L1200.4 377.836L1230.02 338.956L1259.65 300.077L1289.28 261.197L1318.9 222.317L1348.53 183.436L1378.16 144.556L1407.78 105.677L1437.41 66.7971L1467.04 27.9174L1496.66 -10.9622L1526.28 -49.8365L1555.91 -88.7161L1585.54 -127.596L1615.16 -166.479L1644.8 -205.364L1674.42 -244.244L1704.04 -283.122L1733.67 -322.001L1763.3 -360.881L1792.92 -399.764H1763.3L1733.67 -360.885L1704.04 -322.005L1674.42 -283.122L1644.8 -244.244L1615.17 -205.364L1585.54 -166.484L1555.92 -127.605L1526.29 -88.7251L1496.66 -49.8455L1467.04 -10.9658L1437.41 27.9138L1407.78 66.7931L1378.16 105.673L1348.53 144.553L1318.9 183.432L1289.28 222.312L1259.65 261.192L1230.02 300.071L1200.4 338.951L1170.77 377.831L1141.14 416.71L1111.51 455.59L1081.89 494.469L1052.26 533.349L1022.63 572.229L993.009 611.108L963.382 649.988L933.755 688.868L904.128 727.747L874.502 766.627L844.875 805.507L815.248 844.386L785.622 883.266L755.995 922.156L726.368 961.04H755.995L785.622 922.156L815.254 883.277Z" fill="#5E66EA"/>
<path d="M756.001 883.276L785.63 844.397L815.257 805.517L844.883 766.637L874.51 727.758L904.137 688.878L933.763 649.999L963.39 611.119L993.017 572.239L1022.64 533.36L1052.27 494.48L1081.9 455.597L1111.52 416.717L1141.15 377.838L1170.76 338.956L1200.39 300.076L1230.02 261.197L1259.64 222.317L1289.27 183.438L1318.9 144.558L1348.52 105.678L1378.15 66.7991L1407.78 27.9191L1437.4 -10.9605L1467.03 -49.8365L1496.66 -88.7162L1526.28 -127.596L1555.91 -166.479L1585.54 -205.359L1615.16 -244.244L1644.79 -283.122L1674.42 -322.005L1704.04 -360.885L1733.67 -399.764H1704.04L1674.42 -360.885L1644.79 -322.005L1615.16 -283.122L1585.54 -244.242L1555.91 -205.362L1526.28 -166.483L1496.66 -127.603L1467.03 -88.7234L1437.4 -49.8438L1407.78 -10.9641L1378.15 27.9155L1348.52 66.7951L1318.9 105.675L1289.27 144.554L1259.64 183.434L1230.02 222.314L1200.39 261.193L1170.76 300.073L1141.14 338.953L1111.51 377.832L1081.9 416.715L1052.27 455.595L1022.64 494.475L993.017 533.354L963.39 572.234L933.763 611.113L904.137 649.993L874.51 688.873L844.883 727.752L815.257 766.632L785.63 805.512L756.003 844.391L726.376 883.271L696.75 922.151L667.123 961.03H696.75L726.376 922.151L756.001 883.276Z" fill="#5E66EA"/>
<path d="M696.747 883.276L726.373 844.397L755.999 805.517L785.626 766.638L815.253 727.758L844.879 688.878L874.506 649.999L904.13 611.115L933.757 572.236L963.384 533.356L993.01 494.477L1022.64 455.597L1052.26 416.717L1081.89 377.838L1111.52 338.958L1141.14 300.078L1170.77 261.199L1200.4 222.315L1230.02 183.436L1259.65 144.556L1289.28 105.677L1318.9 66.7971L1348.53 27.9174L1378.16 -10.9623L1407.78 -49.8365L1437.41 -88.7161L1467.03 -127.596L1496.66 -166.479L1526.29 -205.359L1555.92 -244.238L1585.53 -283.122L1615.16 -322.001L1644.78 -360.881L1674.42 -399.764H1644.79L1615.16 -360.885L1585.53 -322.005L1555.91 -283.122L1526.28 -244.242L1496.66 -205.362L1467.03 -166.483L1437.4 -127.603L1407.78 -88.7233L1378.15 -49.8437L1348.52 -10.9641L1318.9 27.9156L1289.27 66.7951L1259.64 105.675L1230.02 144.554L1200.39 183.434L1170.76 222.314L1141.14 261.193L1111.51 300.073L1081.88 338.953L1052.26 377.832L1022.63 416.712L993.002 455.591L963.375 494.471L933.749 533.351L904.122 572.23L874.495 611.11L844.869 649.99L815.242 688.869L785.615 727.749L755.989 766.629L726.362 805.508L696.736 844.388L667.109 883.267L637.482 922.147L607.855 961.03H637.482L667.109 922.147L696.747 883.276Z" fill="#5E66EA"/>
<path d="M637.5 883.277L667.127 844.397L696.754 805.517L726.38 766.638L756.008 727.758L785.634 688.878L815.261 649.999L844.888 611.119L874.514 572.239L904.141 533.36L933.768 494.48L963.394 455.601L993.021 416.721L1022.63 377.836L1052.26 338.956L1081.89 300.077L1111.51 261.197L1141.14 222.317L1170.77 183.438L1200.39 144.558L1230.02 105.678L1259.65 66.7991L1289.27 27.9192L1318.9 -10.964L1348.53 -49.8365L1378.15 -88.7233L1407.78 -127.603L1437.41 -166.479L1467.03 -205.359L1496.66 -244.238L1526.28 -283.122L1555.91 -322.001L1585.54 -360.881L1615.17 -399.764H1585.54L1555.91 -360.885L1526.29 -322.005L1496.66 -283.122L1467.03 -244.242L1437.41 -205.362L1407.78 -166.479L1378.15 -127.599L1348.53 -88.7197L1318.9 -49.8365L1289.27 -10.9568L1259.65 27.9228L1230.02 66.8021L1200.39 105.682L1170.77 144.562L1141.14 183.441L1111.51 222.321L1081.89 261.201L1052.26 300.08L1022.63 338.96L993.007 377.839L963.381 416.719L933.754 455.599L904.127 494.478L874.501 533.358L844.874 572.238L815.247 611.117L785.621 649.997L755.994 688.877L726.367 727.756L696.74 766.636L667.113 805.516L637.487 844.395L607.86 883.275L578.233 922.154L548.606 961.03H578.233L607.86 922.154L637.5 883.277Z" fill="#5E66EA"/>
<path d="M578.243 883.276L607.87 844.397L637.496 805.517L667.123 766.638L696.748 727.756L726.375 688.877L756.002 649.995L785.629 611.115L815.255 572.236L844.882 533.356L874.509 494.477L904.135 455.597L933.762 416.717L963.389 377.838L993.016 338.958L1022.64 300.078L1052.27 261.197L1081.9 222.317L1111.52 183.438L1141.15 144.558L1170.78 105.678L1200.4 66.7991L1230.03 27.9192L1259.66 -10.9605L1289.27 -49.8365L1318.9 -88.7161L1348.53 -127.596L1378.15 -166.479L1407.78 -205.359L1437.4 -244.244L1467.03 -283.122L1496.66 -322.001L1526.29 -360.881L1555.91 -399.764H1526.28L1496.66 -360.885L1467.03 -322.005L1437.4 -283.122L1407.78 -244.242L1378.15 -205.362L1348.52 -166.483L1318.9 -127.603L1289.27 -88.7233L1259.64 -49.8437L1230.01 -10.9641L1200.39 27.9156L1170.76 66.7951L1141.13 105.675L1111.51 144.554L1081.88 183.434L1052.25 222.314L1022.63 261.193L993.002 300.073L963.375 338.953L933.748 377.832L904.122 416.712L874.495 455.591L844.868 494.471L815.242 533.351L785.615 572.23L755.988 611.11L726.361 649.99L696.735 688.869L667.108 727.749L637.481 766.629L607.855 805.508L578.228 844.388L548.601 883.267L518.975 922.147V961.03L548.601 922.147L578.243 883.276Z" fill="#5E66EA"/>
<path d="M578.236 805.515L607.863 766.636L637.489 727.756L667.116 688.876L696.743 649.997L726.369 611.117L755.997 572.238L785.623 533.358L815.25 494.478L844.877 455.599L874.503 416.715L904.13 377.836L933.757 338.956L963.383 300.076L993.01 261.197L1022.64 222.317L1052.26 183.438L1081.89 144.558L1111.52 105.678L1141.14 66.7991L1170.77 27.9155L1200.4 -10.9641L1230.02 -49.8365L1259.65 -88.7161L1289.28 -127.596L1318.9 -166.479L1348.53 -205.359L1378.15 -244.238L1407.78 -283.122L1437.41 -322.001L1467.04 -360.885L1496.66 -399.764H1467.04L1437.41 -360.885L1407.78 -322.005L1378.15 -283.122L1348.53 -244.242L1318.9 -205.362L1289.27 -166.483L1259.65 -127.603L1230.02 -88.7234L1200.39 -49.8438L1170.77 -10.9641L1141.14 27.9155L1111.51 66.7951L1081.89 105.675L1052.26 144.554L1022.63 183.434L993.006 222.314L963.379 261.193L933.753 300.073L904.126 338.953L874.499 377.832L844.873 416.712L815.246 455.591L785.619 494.471L755.992 533.351L726.365 572.23L696.739 611.11L667.112 649.99L637.485 688.869L607.858 727.749L578.232 766.629L548.605 805.508L518.979 844.388V883.267L548.605 844.388L578.236 805.515Z" fill="#5E66EA"/>
<path d="M578.243 727.756L607.872 688.876L637.499 649.997L667.125 611.117L696.752 572.238L726.379 533.358L756.006 494.478L785.633 455.599L815.259 416.719L844.886 377.839L874.513 338.96L904.14 300.076L933.766 261.197L963.393 222.317L993.006 183.436L1022.63 144.556L1052.26 105.677L1081.89 66.7971L1111.51 27.9173L1141.14 -10.9623L1170.77 -49.8365L1200.4 -88.7161L1230.02 -127.596L1259.65 -166.479L1289.27 -205.364L1318.9 -244.244L1348.53 -283.122L1378.15 -322.001L1407.78 -360.881L1437.41 -399.764H1407.78L1378.15 -360.885L1348.53 -322.005L1318.9 -283.122L1289.27 -244.244L1259.65 -205.364L1230.02 -166.485L1200.39 -127.605L1170.77 -88.7252L1141.14 -49.8456L1111.51 -10.9659L1081.89 27.9137L1052.26 66.7931L1022.63 105.673L993.006 144.553L963.379 183.432L933.752 222.312L904.126 261.191L874.499 300.071L844.872 338.951L815.246 377.83L785.619 416.71L755.992 455.59L726.365 494.469L696.738 533.349L667.112 572.229L637.485 611.108L607.858 649.988L578.232 688.867L548.605 727.747L518.979 766.627V805.506L548.605 766.627L578.243 727.756Z" fill="#5E66EA"/>
<path d="M578.243 649.995L607.869 611.115L637.496 572.236L667.123 533.356L696.749 494.477L726.373 455.597L756 416.715L785.626 377.836L815.253 338.956L844.88 300.076L874.506 261.197L904.133 222.317L933.76 183.438L963.386 144.558L993.013 105.678L1022.64 66.7951L1052.27 27.9155L1081.89 -10.9641L1111.52 -49.8365L1141.14 -88.7161L1170.77 -127.596L1200.4 -166.479L1230.02 -205.359L1259.65 -244.238L1289.27 -283.122L1318.91 -322.005L1348.53 -360.885L1378.15 -399.764H1348.53L1318.91 -360.885L1289.28 -322.005L1259.65 -283.122L1230.02 -244.242L1200.4 -205.362L1170.77 -166.483L1141.14 -127.603L1111.52 -88.7234L1081.89 -49.8438L1052.26 -10.9641L1022.64 27.9155L993.013 66.7951L963.386 105.675L933.76 144.554L904.133 183.434L874.506 222.314L844.88 261.193L815.253 300.073L785.626 338.953L756 377.832L726.373 416.715L696.746 455.595L667.12 494.475L637.493 533.354L607.866 572.234L578.24 611.114L548.613 649.993L518.986 688.873V727.756L548.613 688.876L578.243 649.995Z" fill="#5E66EA"/>
<path d="M578.243 572.236L607.869 533.356L637.496 494.477L667.123 455.597L696.75 416.717L726.376 377.838L756.002 338.958L785.629 300.078L815.256 261.199L844.874 222.315L874.501 183.436L904.128 144.556L933.754 105.677L963.381 66.7971L993.008 27.9174L1022.63 -10.9622L1052.26 -49.8365L1081.89 -88.7161L1111.52 -127.596L1141.14 -166.479L1170.77 -205.359L1200.4 -244.244L1230.02 -283.122L1259.65 -322.005L1289.28 -360.885L1318.9 -399.764H1289.27L1259.65 -360.885L1230.02 -322.005L1200.4 -283.122L1170.77 -244.242L1141.14 -205.362L1111.52 -166.483L1081.89 -127.603L1052.26 -88.7233L1022.63 -49.8437L993.008 -10.964L963.381 27.9156L933.754 66.7951L904.128 105.675L874.501 144.554L844.874 183.434L815.248 222.314L785.621 261.193L755.994 300.073L726.368 338.953L696.741 377.832L667.115 416.712L637.488 455.592L607.861 494.471L578.234 533.351L548.608 572.23L518.981 611.11V649.99L548.608 611.11L578.243 572.236Z" fill="#5E66EA"/>
<path d="M578.243 494.477L607.869 455.597L637.496 416.717L667.123 377.838L696.749 338.958L726.376 300.078L756.002 261.199L785.629 222.319L815.256 183.439L844.882 144.56L874.509 105.677L904.136 66.7971L933.763 27.9174L963.389 -10.9622L993.011 -49.8365L1022.64 -88.7161L1052.26 -127.596L1081.89 -166.479L1111.52 -205.359L1141.14 -244.238L1170.77 -283.122L1200.4 -322.001L1230.02 -360.881L1259.64 -399.764H1230.02L1200.39 -360.885L1170.76 -322.005L1141.14 -283.122L1111.51 -244.242L1081.89 -205.362L1052.26 -166.483L1022.63 -127.603L993.008 -88.7233L963.381 -49.8437L933.754 -10.964L904.128 27.9156L874.501 66.7951L844.874 105.675L815.248 144.554L785.621 183.434L755.994 222.314L726.368 261.193L696.741 300.073L667.115 338.953L637.488 377.832L607.861 416.712L578.234 455.592L548.608 494.471L518.981 533.351V572.23L548.608 533.351L578.243 494.477Z" fill="#5E66EA"/>
<path d="M578.242 416.716L607.869 377.836L637.496 338.956L667.123 300.077L696.745 261.197L726.372 222.317L755.998 183.438L785.625 144.558L815.252 105.678L844.878 66.7991L874.505 27.9192L904.132 -10.9604L933.758 -49.8365L963.385 -88.7233L993.012 -127.605L1022.64 -166.479L1052.26 -205.359L1081.89 -244.238L1111.52 -283.122L1141.14 -322.001L1170.77 -360.881L1200.4 -399.764H1170.77L1141.14 -360.885L1111.52 -322.005L1081.89 -283.122L1052.26 -244.242L1022.64 -205.362L993.012 -166.479L963.385 -127.599L933.758 -88.7197L904.132 -49.8365L874.505 -10.9568L844.878 27.9228L815.252 66.8021L785.625 105.682L755.998 144.562L726.372 183.441L696.745 222.321L667.118 261.201L637.492 300.08L607.865 338.96L578.238 377.839L548.612 416.719L518.985 455.599V494.478L548.612 455.599L578.242 416.716Z" fill="#5E66EA"/>
<path d="M578.243 338.956L607.869 300.076L637.496 261.197L667.123 222.317L696.749 183.438L726.38 144.556L756.007 105.677L785.633 66.7971L815.246 27.9155L844.873 -10.9641L874.505 -49.8365L904.132 -88.7161L933.759 -127.596L963.384 -166.479L993.011 -205.359L1022.64 -244.238L1052.26 -283.122L1081.89 -322.001L1111.51 -360.885L1141.14 -399.764H1111.51L1081.89 -360.885L1052.26 -322.005L1022.64 -283.122L993.011 -244.242L963.384 -205.362L933.757 -166.483L904.131 -127.603L874.504 -88.7234L844.877 -49.8438L815.25 -10.9641L785.624 27.9155L755.997 66.7951L726.371 105.675L696.744 144.554L667.117 183.434L637.491 222.314L607.864 261.193L578.237 300.073L548.61 338.953L518.983 377.832V416.715L548.61 377.836L578.243 338.956Z" fill="#5E66EA"/>
<path d="M578.241 261.197L607.868 222.317L637.495 183.438L667.121 144.558L696.748 105.678L726.375 66.7991L756.001 27.9192L785.628 -10.9604L815.252 -49.8365L844.881 -88.7233L874.508 -127.603L904.132 -166.479L933.758 -205.359L963.385 -244.238L993.01 -283.122L1022.64 -322.001L1052.26 -360.881L1081.89 -399.764H1052.26L1022.64 -360.885L993.009 -322.005L963.384 -283.122L933.757 -244.242L904.13 -205.362L874.504 -166.483L844.877 -127.603L815.25 -88.7233L785.624 -49.8437L755.997 -10.964L726.37 27.9156L696.744 66.7951L667.117 105.675L637.49 144.554L607.864 183.434L578.237 222.314L548.61 261.193L518.983 300.073V338.953L548.614 300.077L578.241 261.197Z" fill="#5E66EA"/>
<path d="M578.241 183.436L607.868 144.556L637.495 105.677L667.116 66.7951L696.742 27.9155L726.369 -10.9641L756 -49.8365L785.626 -88.7161L815.253 -127.596L844.878 -166.479L874.505 -205.359L904.132 -244.238L933.757 -283.122L963.382 -322.005L993.009 -360.885L1022.64 -399.764H993.009L963.382 -360.885L933.756 -322.005L904.13 -283.122L874.504 -244.242L844.877 -205.362L815.25 -166.483L785.624 -127.603L755.997 -88.7234L726.371 -49.8438L696.744 -10.9641L667.117 27.9155L637.49 66.7951L607.864 105.675L578.237 144.554L548.61 183.434L518.983 222.314V261.193L548.61 222.314L578.241 183.436Z" fill="#5E66EA"/>
<path d="M578.242 105.676L607.869 66.7971L637.496 27.9173L667.122 -10.9623L696.752 -49.8365L726.379 -88.7162L756.005 -127.596L785.626 -166.479L815.253 -205.359L844.88 -244.238L874.505 -283.122L904.132 -322.001L933.758 -360.881L963.384 -399.764H933.757L904.13 -360.885L874.504 -322.005L844.88 -283.122L815.253 -244.242L785.626 -205.362L756 -166.483L726.373 -127.603L696.752 -88.7234L667.125 -49.8438L637.499 -10.9641L607.872 27.9155L578.245 66.7951L548.618 105.675L518.992 144.554V183.434L548.618 144.554L578.242 105.676Z" fill="#5E66EA"/>
<path d="M578.243 27.9155L607.869 -10.9641L637.495 -49.8365L667.121 -88.7161L696.748 -127.596L726.373 -166.479L756 -205.359L785.626 -244.244L815.253 -283.122L844.88 -322.001L874.506 -360.881L904.132 -399.764H874.505L844.878 -360.885L815.253 -322.005L785.626 -283.122L756 -244.242L726.373 -205.362L696.747 -166.483L667.12 -127.603L637.493 -88.7234L607.866 -49.8438L578.24 -10.9641L548.613 27.9155L518.986 66.7951V105.675L548.613 66.7951L578.243 27.9155Z" fill="#5E66EA"/>
<path d="M578.241 -49.8365L607.868 -88.7161L637.487 -127.605L667.121 -166.479L696.748 -205.359L726.374 -244.238L756 -283.122L785.626 -322.001L815.253 -360.881L844.878 -399.764H815.252L785.625 -360.885L755.998 -322.005L726.373 -283.122L696.746 -244.242L667.12 -205.362L637.487 -166.479L607.861 -127.599L578.234 -88.7197L548.621 -49.8365L518.994 -10.9569V27.9228L548.621 -10.9641L578.241 -49.8365Z" fill="#5E66EA"/>
<path d="M1289.27 883.276L1318.91 844.397L1348.53 805.517L1378.16 766.638L1407.79 727.758L1437.41 688.878L1467.04 649.999L1496.67 611.119L1526.29 572.239L1555.92 533.36L1585.55 494.48L1615.17 455.601L1644.8 416.721L1674.43 377.841L1704.04 338.956L1733.67 300.077L1763.29 261.197L1792.92 222.317L1822.55 183.438L1852.17 144.558L1881.8 105.678L1911.43 66.799L1941.05 27.9191L1970.68 -10.9552L2000.31 -49.8438V-88.7234L1970.68 -49.8438L1941.05 -10.9552L1911.43 27.9245L1881.8 66.804L1852.17 105.684L1822.55 144.563L1792.92 183.443L1763.29 222.323L1733.67 261.202L1704.04 300.082L1674.41 338.962L1644.79 377.841L1615.16 416.721L1585.53 455.601L1555.91 494.48L1526.28 533.36L1496.65 572.239L1467.03 611.119L1437.4 649.999L1407.77 688.878L1378.15 727.758L1348.52 766.638L1318.89 805.517L1289.27 844.397L1259.64 883.276L1230.01 922.156L1200.39 961.04H1230.01L1259.64 922.156L1289.27 883.276Z" fill="#5E66EA"/>
<path d="M1230.02 883.277L1259.65 844.397L1289.27 805.512L1318.91 766.636L1348.53 727.756L1378.15 688.869L1407.78 649.99L1437.41 611.11L1467.03 572.23L1496.66 533.351L1526.29 494.471L1555.91 455.591L1585.54 416.712L1615.17 377.832L1644.79 338.953L1674.42 300.073L1704.04 261.197L1733.67 222.317L1763.29 183.438L1792.92 144.558L1822.55 105.678L1852.17 66.7991L1881.8 27.9192L1911.43 -10.9605L1941.05 -49.8401L1970.68 -88.7234L2000.31 -127.605V-166.485L1970.68 -127.605L1941.05 -88.7252L1911.43 -49.8455L1881.8 -10.9659L1852.17 27.9137L1822.55 66.7931L1792.92 105.673L1763.29 144.553L1733.67 183.432L1704.04 222.312L1674.41 261.191L1644.79 300.071L1615.16 338.951L1585.53 377.83L1555.91 416.71L1526.28 455.59L1496.65 494.469L1467.03 533.349L1437.4 572.229L1407.77 611.108L1378.15 649.988L1348.52 688.868L1318.91 727.756L1289.28 766.636L1259.65 805.516L1230.03 844.395L1200.4 883.275L1170.77 922.154L1141.15 961.03H1170.77L1200.4 922.154L1230.02 883.277Z" fill="#5E66EA"/>
<path d="M1170.77 883.275L1200.4 844.395L1230.02 805.515L1259.65 766.636L1289.28 727.756L1318.91 688.875L1348.53 649.995L1378.16 611.115L1407.79 572.236L1437.41 533.356L1467.04 494.477L1496.67 455.597L1526.29 416.717L1555.92 377.838L1585.55 338.958L1615.17 300.078L1644.8 261.199L1674.43 222.319L1704.04 183.436L1733.67 144.556L1763.29 105.676L1792.92 66.7971L1822.55 27.9174L1852.17 -10.9622L1881.8 -49.8419L1911.43 -88.718L1941.05 -127.605L1970.68 -166.485L2000.31 -205.361V-244.246L1970.68 -205.361L1941.05 -166.481L1911.43 -127.601L1881.8 -88.718L1852.17 -49.8383L1822.55 -10.9586L1792.92 27.921L1763.29 66.8002L1733.67 105.68L1704.04 144.56L1674.41 183.439L1644.79 222.319L1615.16 261.199L1585.53 300.078L1555.91 338.958L1526.28 377.838L1496.65 416.717L1467.03 455.597L1437.4 494.477L1407.77 533.356L1378.15 572.236L1348.52 611.115L1318.89 649.995L1289.27 688.875L1259.64 727.754L1230.01 766.634L1200.39 805.514L1170.76 844.393L1141.13 883.273L1111.51 922.153L1081.88 961.03H1111.51L1141.13 922.153L1170.77 883.275Z" fill="#5E66EA"/>
<path d="M1111.52 883.277L1141.14 844.393L1170.77 805.514L1200.4 766.634L1230.02 727.751L1259.65 688.871L1289.28 649.992L1318.91 611.108L1348.53 572.229L1378.16 533.349L1407.79 494.469L1437.41 455.59L1467.04 416.71L1496.67 377.831L1526.29 338.951L1555.92 300.071L1585.55 261.192L1615.17 222.312L1644.8 183.432L1674.43 144.553L1704.04 105.677L1733.67 66.7971L1763.29 27.9174L1792.92 -10.9623L1822.55 -49.8419L1852.17 -88.7215L1881.8 -127.601L1911.43 -166.481L1941.05 -205.364L1970.68 -244.244L2000.31 -283.123V-322.003L1970.68 -283.123L1941.05 -244.244L1911.43 -205.364L1881.8 -166.485L1852.17 -127.605L1822.55 -88.7252L1792.92 -49.8456L1763.29 -10.9659L1733.67 27.9138L1704.04 66.7931L1674.41 105.673L1644.79 144.553L1615.16 183.432L1585.53 222.312L1555.91 261.192L1526.28 300.071L1496.65 338.951L1467.03 377.831L1437.4 416.71L1407.77 455.59L1378.15 494.469L1348.52 533.349L1318.89 572.229L1289.27 611.108L1259.64 649.988L1230.01 688.868L1200.39 727.747L1170.76 766.627L1141.13 805.507L1111.52 844.393L1081.89 883.273L1052.26 922.153L1022.64 961.04H1052.27L1081.89 922.156L1111.52 883.277Z" fill="#5E66EA"/>
<path d="M993.011 883.277L1022.64 844.397L1052.26 805.517L1081.89 766.636L1111.52 727.756L1141.14 688.877L1170.77 649.997L1200.4 611.117L1230.02 572.238L1259.65 533.358L1289.28 494.478L1318.9 455.599L1348.53 416.719L1378.16 377.836L1407.78 338.956L1437.41 300.077L1467.04 261.197L1496.66 222.317L1526.29 183.438L1555.92 144.558L1585.54 105.678L1615.17 66.7991L1644.8 27.9192L1674.42 -10.9604L1704.04 -49.8365L1733.67 -88.7161L1763.29 -127.605L1792.92 -166.479L1822.55 -205.359L1852.18 -244.238L1881.8 -283.122L1911.43 -322.005L1941.05 -360.885L1970.68 -399.764H1941.05L1911.43 -360.885L1881.8 -322.005L1852.17 -283.122L1822.55 -244.242L1792.92 -205.362L1763.29 -166.479L1733.66 -127.599L1704.04 -88.7197L1674.41 -49.8401L1644.78 -10.9604L1615.16 27.9192L1585.53 66.7991L1555.9 105.678L1526.28 144.558L1496.65 183.438L1467.02 222.317L1437.4 261.197L1407.77 300.077L1378.14 338.956L1348.52 377.836L1318.89 416.716L1289.26 455.595L1259.64 494.475L1230.01 533.354L1200.38 572.234L1170.76 611.114L1141.13 649.993L1111.5 688.873L1081.89 727.756L1052.26 766.636L1022.64 805.516L993.01 844.395L963.383 883.275L933.756 922.154L904.13 961.03H933.756L963.383 922.154L993.011 883.277Z" fill="#5E66EA"/>
<path d="M1052.27 883.276L1081.89 844.397L1111.52 805.517L1141.15 766.638L1170.77 727.758L1200.4 688.878L1230.03 649.999L1259.65 611.119L1289.28 572.239L1318.91 533.356L1348.53 494.477L1378.16 455.597L1407.79 416.717L1437.41 377.838L1467.04 338.958L1496.67 300.078L1526.29 261.199L1555.92 222.319L1585.55 183.439L1615.17 144.56L1644.8 105.68L1674.43 66.8011L1704.04 27.9156L1733.67 -10.9641L1763.3 -49.8365L1792.92 -88.7161L1822.55 -127.596L1852.17 -166.479L1881.8 -205.359L1911.43 -244.244L1941.05 -283.122L1970.68 -322.005L2000.31 -360.885V-399.764L1970.68 -360.885L1941.05 -322.005L1911.43 -283.122L1881.8 -244.242L1852.17 -205.362L1822.55 -166.483L1792.92 -127.603L1763.29 -88.7233L1733.67 -49.8437L1704.04 -10.9641L1674.41 27.9156L1644.79 66.7951L1615.16 105.675L1585.53 144.554L1555.91 183.434L1526.28 222.314L1496.65 261.193L1467.03 300.073L1437.4 338.953L1407.77 377.832L1378.15 416.712L1348.52 455.591L1318.89 494.471L1289.27 533.351L1259.64 572.23L1230.01 611.11L1200.39 649.99L1170.76 688.869L1141.13 727.749L1111.51 766.629L1081.88 805.508L1052.25 844.388L1022.63 883.267L993.001 922.147L963.374 961.03H993.001L1022.64 922.156L1052.27 883.276Z" fill="#5E66EA"/>
</g>
</g>
<g clip-path="url(#clip2_2217_385)">
<mask id="mask2_2217_385" style="mask-type:luminance" maskUnits="userSpaceOnUse" x="609" y="749" width="707" height="857">
<path d="M1316 749H609V1606H1316V749Z" fill="white"/>
</mask>
<g mask="url(#mask2_2217_385)">
<path d="M915.758 1684.28L945.385 1645.4L975.011 1606.52L1004.64 1567.64L1034.27 1528.76L1063.89 1489.88L1093.52 1451L1123.15 1412.12L1152.77 1373.24L1182.39 1334.36L1212.02 1295.48L1241.65 1256.6L1271.27 1217.72L1300.9 1178.84L1330.53 1139.96L1360.15 1101.08L1389.78 1062.2L1419.41 1023.32L1449.03 984.439L1478.66 945.556L1508.29 906.677L1537.91 867.797L1567.54 828.918L1597.17 790.038L1626.79 751.164L1656.42 712.284L1686.04 673.404L1715.67 634.521L1745.3 595.641L1774.93 556.756L1804.55 517.878L1834.17 478.995L1863.8 440.115L1893.43 401.236H1863.8L1834.17 440.115L1804.55 478.995L1774.93 517.878L1745.3 556.758L1715.67 595.638L1686.05 634.517L1656.42 673.397L1626.79 712.277L1597.17 751.157L1567.54 790.036L1537.91 828.916L1508.29 867.795L1478.66 906.677L1449.03 945.556L1419.41 984.436L1389.78 1023.32L1360.15 1062.2L1330.53 1101.08L1300.9 1139.95L1271.27 1178.83L1241.65 1217.71L1212.02 1256.59L1182.39 1295.47L1152.77 1334.35L1123.14 1373.23L1093.51 1412.11L1063.89 1450.99L1034.26 1489.87L1004.63 1528.75L975.005 1567.63L945.378 1606.51L915.751 1645.39L886.124 1684.27L856.498 1723.15L826.871 1762.03H856.498L886.124 1723.15L915.758 1684.28Z" fill="#5E66EA"/>
<path d="M856.506 1684.28L886.133 1645.4L915.761 1606.52L945.388 1567.64L975.014 1528.76L1004.64 1489.88L1034.27 1451L1063.89 1412.12L1093.52 1373.24L1123.15 1334.36L1152.77 1295.48L1182.4 1256.6L1212.03 1217.72L1241.65 1178.84L1271.28 1139.96L1300.91 1101.08L1330.53 1062.2L1360.16 1023.32L1389.79 984.438L1419.41 945.558L1449.04 906.678L1478.67 867.799L1508.29 828.919L1537.92 790.04L1567.54 751.164L1597.16 712.277L1626.79 673.397L1656.42 634.521L1686.04 595.641L1715.67 556.762L1745.3 517.878L1774.92 478.999L1804.55 440.119L1834.18 401.236H1804.55L1774.92 440.115L1745.3 478.995L1715.67 517.878L1686.04 556.758L1656.42 595.638L1626.79 634.517L1597.16 673.397L1567.54 712.277L1537.91 751.156L1508.28 790.036L1478.66 828.916L1449.03 867.795L1419.4 906.675L1389.78 945.554L1360.15 984.434L1330.52 1023.31L1300.9 1062.19L1271.27 1101.07L1241.64 1139.95L1212.03 1178.84L1182.4 1217.72L1152.77 1256.6L1123.15 1295.48L1093.52 1334.35L1063.89 1373.23L1034.27 1412.11L1004.64 1450.99L975.014 1489.87L945.388 1528.75L915.761 1567.63L886.134 1606.51L856.508 1645.39L826.881 1684.27L797.254 1723.15L767.627 1762.03H797.254L826.881 1723.15L856.506 1684.28Z" fill="#5E66EA"/>
<path d="M797.254 1684.28L826.881 1645.4L856.507 1606.52L886.134 1567.64L915.761 1528.76L945.387 1489.88L975.014 1451L1004.64 1412.12L1034.26 1373.24L1063.89 1334.36L1093.51 1295.48L1123.14 1256.6L1152.77 1217.72L1182.4 1178.84L1212.02 1139.96L1241.65 1101.08L1271.28 1062.2L1300.9 1023.32L1330.53 984.436L1360.16 945.556L1389.78 906.677L1419.41 867.797L1449.04 828.918L1478.66 790.038L1508.28 751.164L1537.91 712.284L1567.54 673.405L1597.16 634.521L1626.8 595.636L1656.42 556.756L1686.04 517.878L1715.67 478.999L1745.3 440.119L1774.92 401.236H1745.3L1715.67 440.115L1686.04 478.995L1656.42 517.878L1626.8 556.756L1597.17 595.636L1567.54 634.516L1537.92 673.395L1508.29 712.275L1478.66 751.155L1449.04 790.034L1419.41 828.914L1389.78 867.793L1360.16 906.673L1330.53 945.553L1300.9 984.432L1271.28 1023.31L1241.65 1062.19L1212.02 1101.07L1182.4 1139.95L1152.77 1178.83L1123.14 1217.71L1093.51 1256.59L1063.89 1295.47L1034.26 1334.35L1004.63 1373.23L975.009 1412.11L945.382 1450.99L915.755 1489.87L886.128 1528.75L856.502 1567.63L826.875 1606.51L797.248 1645.39L767.622 1684.27L737.995 1723.16L708.368 1762.04H737.995L767.622 1723.16L797.254 1684.28Z" fill="#5E66EA"/>
<path d="M738.001 1684.28L767.63 1645.4L797.257 1606.52L826.883 1567.64L856.51 1528.76L886.137 1489.88L915.763 1451L945.39 1412.12L975.017 1373.24L1004.64 1334.36L1034.27 1295.48L1063.9 1256.6L1093.52 1217.72L1123.15 1178.84L1152.76 1139.96L1182.39 1101.08L1212.02 1062.2L1241.64 1023.32L1271.27 984.438L1300.9 945.558L1330.52 906.678L1360.15 867.799L1389.78 828.919L1419.4 790.04L1449.03 751.164L1478.66 712.284L1508.28 673.404L1537.91 634.521L1567.54 595.641L1597.16 556.756L1626.79 517.878L1656.42 478.995L1686.04 440.115L1715.67 401.236H1686.04L1656.42 440.115L1626.79 478.995L1597.16 517.878L1567.54 556.758L1537.91 595.638L1508.28 634.517L1478.66 673.397L1449.03 712.277L1419.4 751.156L1389.78 790.036L1360.15 828.916L1330.52 867.795L1300.9 906.675L1271.27 945.554L1241.64 984.434L1212.02 1023.31L1182.39 1062.19L1152.76 1101.07L1123.14 1139.95L1093.51 1178.83L1063.9 1217.72L1034.27 1256.6L1004.64 1295.48L975.017 1334.35L945.39 1373.23L915.763 1412.11L886.137 1450.99L856.51 1489.87L826.883 1528.75L797.257 1567.63L767.63 1606.51L738.003 1645.39L708.376 1684.27L678.75 1723.15L649.123 1762.03H678.75L708.376 1723.15L738.001 1684.28Z" fill="#5E66EA"/>
<path d="M678.747 1684.28L708.373 1645.4L737.999 1606.52L767.626 1567.64L797.253 1528.76L826.879 1489.88L856.506 1451L886.13 1412.12L915.757 1373.24L945.384 1334.36L975.01 1295.48L1004.64 1256.6L1034.26 1217.72L1063.89 1178.84L1093.52 1139.96L1123.14 1101.08L1152.77 1062.2L1182.4 1023.32L1212.02 984.436L1241.65 945.556L1271.28 906.677L1300.9 867.797L1330.53 828.918L1360.16 790.038L1389.78 751.164L1419.41 712.284L1449.03 673.404L1478.66 634.521L1508.29 595.641L1537.92 556.762L1567.53 517.878L1597.16 478.999L1626.78 440.119L1656.42 401.236H1626.79L1597.16 440.115L1567.53 478.995L1537.91 517.878L1508.28 556.758L1478.66 595.638L1449.03 634.517L1419.4 673.397L1389.78 712.277L1360.15 751.157L1330.52 790.036L1300.9 828.916L1271.27 867.795L1241.64 906.675L1212.02 945.554L1182.39 984.434L1152.76 1023.31L1123.14 1062.19L1093.51 1101.07L1063.88 1139.95L1034.26 1178.83L1004.63 1217.71L975.002 1256.59L945.375 1295.47L915.749 1334.35L886.122 1373.23L856.495 1412.11L826.869 1450.99L797.242 1489.87L767.615 1528.75L737.989 1567.63L708.362 1606.51L678.736 1645.39L649.109 1684.27L619.482 1723.15L589.855 1762.03H619.482L649.109 1723.15L678.747 1684.28Z" fill="#5E66EA"/>
<path d="M619.5 1684.28L649.127 1645.4L678.754 1606.52L708.38 1567.64L738.008 1528.76L767.634 1489.88L797.261 1451L826.888 1412.12L856.514 1373.24L886.141 1334.36L915.768 1295.48L945.394 1256.6L975.021 1217.72L1004.63 1178.84L1034.26 1139.96L1063.89 1101.08L1093.51 1062.2L1123.14 1023.32L1152.77 984.438L1182.39 945.558L1212.02 906.678L1241.65 867.799L1271.27 828.919L1300.9 790.036L1330.53 751.164L1360.15 712.277L1389.78 673.397L1419.41 634.521L1449.03 595.641L1478.66 556.762L1508.28 517.878L1537.91 478.999L1567.54 440.119L1597.17 401.236H1567.54L1537.91 440.115L1508.29 478.995L1478.66 517.878L1449.03 556.758L1419.41 595.638L1389.78 634.521L1360.15 673.401L1330.53 712.281L1300.9 751.164L1271.27 790.043L1241.65 828.923L1212.02 867.802L1182.39 906.682L1152.77 945.562L1123.14 984.441L1093.51 1023.32L1063.89 1062.2L1034.26 1101.08L1004.63 1139.96L975.007 1178.84L945.381 1217.72L915.754 1256.6L886.127 1295.48L856.501 1334.36L826.874 1373.24L797.247 1412.12L767.621 1451L737.994 1489.88L708.367 1528.76L678.74 1567.64L649.113 1606.52L619.487 1645.4L589.86 1684.28L560.233 1723.15L530.606 1762.03H560.233L589.86 1723.15L619.5 1684.28Z" fill="#5E66EA"/>
<path d="M560.243 1684.28L589.87 1645.4L619.496 1606.52L649.123 1567.64L678.748 1528.76L708.375 1489.88L738.002 1451L767.629 1412.12L797.255 1373.24L826.882 1334.36L856.509 1295.48L886.135 1256.6L915.762 1217.72L945.389 1178.84L975.016 1139.96L1004.64 1101.08L1034.27 1062.2L1063.9 1023.32L1093.52 984.438L1123.15 945.558L1152.78 906.678L1182.4 867.799L1212.03 828.919L1241.66 790.04L1271.27 751.164L1300.9 712.284L1330.53 673.404L1360.15 634.521L1389.78 595.641L1419.4 556.756L1449.03 517.878L1478.66 478.999L1508.29 440.119L1537.91 401.236H1508.28L1478.66 440.115L1449.03 478.995L1419.4 517.878L1389.78 556.758L1360.15 595.638L1330.52 634.517L1300.9 673.397L1271.27 712.277L1241.64 751.157L1212.01 790.036L1182.39 828.916L1152.76 867.795L1123.13 906.675L1093.51 945.554L1063.88 984.434L1034.25 1023.31L1004.63 1062.19L975.002 1101.07L945.375 1139.95L915.748 1178.83L886.122 1217.71L856.495 1256.59L826.868 1295.47L797.242 1334.35L767.615 1373.23L737.988 1412.11L708.361 1450.99L678.735 1489.87L649.108 1528.75L619.481 1567.63L589.855 1606.51L560.228 1645.39L530.601 1684.27L500.975 1723.15V1762.03L530.601 1723.15L560.243 1684.28Z" fill="#5E66EA"/>
<path d="M560.236 1606.52L589.863 1567.64L619.489 1528.76L649.116 1489.88L678.743 1451L708.369 1412.12L737.997 1373.24L767.623 1334.36L797.25 1295.48L826.877 1256.6L856.503 1217.72L886.13 1178.84L915.757 1139.96L945.383 1101.08L975.01 1062.2L1004.64 1023.32L1034.26 984.438L1063.89 945.558L1093.52 906.678L1123.14 867.799L1152.77 828.916L1182.4 790.036L1212.02 751.164L1241.65 712.284L1271.28 673.404L1300.9 634.521L1330.53 595.641L1360.15 556.762L1389.78 517.878L1419.41 478.999L1449.04 440.115L1478.66 401.236H1449.04L1419.41 440.115L1389.78 478.995L1360.15 517.878L1330.53 556.758L1300.9 595.638L1271.27 634.517L1241.65 673.397L1212.02 712.277L1182.39 751.156L1152.77 790.036L1123.14 828.916L1093.51 867.795L1063.89 906.675L1034.26 945.554L1004.63 984.434L975.006 1023.31L945.379 1062.19L915.753 1101.07L886.126 1139.95L856.499 1178.83L826.873 1217.71L797.246 1256.59L767.619 1295.47L737.992 1334.35L708.365 1373.23L678.739 1412.11L649.112 1450.99L619.485 1489.87L589.858 1528.75L560.232 1567.63L530.605 1606.51L500.979 1645.39V1684.27L530.605 1645.39L560.236 1606.52Z" fill="#5E66EA"/>
<path d="M560.243 1528.76L589.872 1489.88L619.499 1451L649.125 1412.12L678.752 1373.24L708.379 1334.36L738.006 1295.48L767.633 1256.6L797.259 1217.72L826.886 1178.84L856.513 1139.96L886.14 1101.08L915.766 1062.2L945.393 1023.32L975.006 984.436L1004.63 945.556L1034.26 906.677L1063.89 867.797L1093.51 828.918L1123.14 790.038L1152.77 751.164L1182.4 712.284L1212.02 673.404L1241.65 634.521L1271.27 595.636L1300.9 556.756L1330.53 517.878L1360.15 478.999L1389.78 440.119L1419.41 401.236H1389.78L1360.15 440.115L1330.53 478.995L1300.9 517.878L1271.27 556.756L1241.65 595.636L1212.02 634.515L1182.39 673.395L1152.77 712.275L1123.14 751.155L1093.51 790.034L1063.89 828.914L1034.26 867.793L1004.63 906.673L975.006 945.553L945.379 984.432L915.752 1023.31L886.126 1062.19L856.499 1101.07L826.872 1139.95L797.246 1178.83L767.619 1217.71L737.992 1256.59L708.365 1295.47L678.738 1334.35L649.112 1373.23L619.485 1412.11L589.858 1450.99L560.232 1489.87L530.605 1528.75L500.979 1567.63V1606.51L530.605 1567.63L560.243 1528.76Z" fill="#5E66EA"/>
<path d="M560.243 1451L589.869 1412.12L619.496 1373.24L649.123 1334.36L678.749 1295.48L708.373 1256.6L738 1217.72L767.626 1178.84L797.253 1139.96L826.88 1101.08L856.506 1062.2L886.133 1023.32L915.76 984.438L945.386 945.558L975.013 906.678L1004.64 867.795L1034.27 828.916L1063.89 790.036L1093.52 751.164L1123.14 712.284L1152.77 673.404L1182.4 634.521L1212.02 595.641L1241.65 556.762L1271.27 517.878L1300.91 478.995L1330.53 440.115L1360.15 401.236H1330.53L1300.91 440.115L1271.28 478.995L1241.65 517.878L1212.02 556.758L1182.4 595.638L1152.77 634.517L1123.14 673.397L1093.52 712.277L1063.89 751.156L1034.26 790.036L1004.64 828.916L975.013 867.795L945.386 906.675L915.76 945.554L886.133 984.434L856.506 1023.31L826.88 1062.19L797.253 1101.07L767.626 1139.95L738 1178.83L708.373 1217.72L678.746 1256.6L649.12 1295.48L619.493 1334.35L589.866 1373.23L560.24 1412.11L530.613 1450.99L500.986 1489.87V1528.76L530.613 1489.88L560.243 1451Z" fill="#5E66EA"/>
<path d="M560.243 1373.24L589.869 1334.36L619.496 1295.48L649.123 1256.6L678.75 1217.72L708.376 1178.84L738.002 1139.96L767.629 1101.08L797.256 1062.2L826.874 1023.32L856.501 984.436L886.128 945.556L915.754 906.677L945.381 867.797L975.008 828.918L1004.63 790.038L1034.26 751.164L1063.89 712.284L1093.52 673.404L1123.14 634.521L1152.77 595.641L1182.4 556.756L1212.02 517.878L1241.65 478.995L1271.28 440.115L1300.9 401.236H1271.27L1241.65 440.115L1212.02 478.995L1182.4 517.878L1152.77 556.758L1123.14 595.638L1093.52 634.517L1063.89 673.397L1034.26 712.277L1004.63 751.157L975.008 790.036L945.381 828.916L915.754 867.795L886.128 906.675L856.501 945.554L826.874 984.434L797.248 1023.31L767.621 1062.19L737.994 1101.07L708.368 1139.95L678.741 1178.83L649.115 1217.71L619.488 1256.59L589.861 1295.47L560.234 1334.35L530.608 1373.23L500.981 1412.11V1450.99L530.608 1412.11L560.243 1373.24Z" fill="#5E66EA"/>
<path d="M560.243 1295.48L589.869 1256.6L619.496 1217.72L649.123 1178.84L678.749 1139.96L708.376 1101.08L738.002 1062.2L767.629 1023.32L797.256 984.439L826.882 945.56L856.509 906.677L886.136 867.797L915.763 828.918L945.389 790.038L975.011 751.164L1004.64 712.284L1034.26 673.404L1063.89 634.521L1093.52 595.641L1123.14 556.762L1152.77 517.878L1182.4 478.999L1212.02 440.119L1241.64 401.236H1212.02L1182.39 440.115L1152.76 478.995L1123.14 517.878L1093.51 556.758L1063.89 595.638L1034.26 634.517L1004.63 673.397L975.008 712.277L945.381 751.157L915.754 790.036L886.128 828.916L856.501 867.795L826.874 906.675L797.248 945.554L767.621 984.434L737.994 1023.31L708.368 1062.19L678.741 1101.07L649.115 1139.95L619.488 1178.83L589.861 1217.71L560.234 1256.59L530.608 1295.47L500.981 1334.35V1373.23L530.608 1334.35L560.243 1295.48Z" fill="#5E66EA"/>
<path d="M560.242 1217.72L589.869 1178.84L619.496 1139.96L649.123 1101.08L678.745 1062.2L708.372 1023.32L737.998 984.438L767.625 945.558L797.252 906.678L826.878 867.799L856.505 828.919L886.132 790.04L915.758 751.164L945.385 712.277L975.012 673.395L1004.64 634.521L1034.26 595.641L1063.89 556.762L1093.52 517.878L1123.14 478.999L1152.77 440.119L1182.4 401.236H1152.77L1123.14 440.115L1093.52 478.995L1063.89 517.878L1034.26 556.758L1004.64 595.638L975.012 634.521L945.385 673.401L915.758 712.281L886.132 751.164L856.505 790.043L826.878 828.923L797.252 867.802L767.625 906.682L737.998 945.562L708.372 984.441L678.745 1023.32L649.118 1062.2L619.492 1101.08L589.865 1139.96L560.238 1178.84L530.612 1217.72L500.985 1256.6V1295.48L530.612 1256.6L560.242 1217.72Z" fill="#5E66EA"/>
<path d="M560.243 1139.96L589.869 1101.08L619.496 1062.2L649.123 1023.32L678.749 984.438L708.38 945.556L738.007 906.677L767.633 867.797L797.246 828.916L826.873 790.036L856.505 751.164L886.132 712.284L915.759 673.404L945.384 634.521L975.011 595.641L1004.64 556.762L1034.26 517.878L1063.89 478.999L1093.51 440.115L1123.14 401.236H1093.51L1063.89 440.115L1034.26 478.995L1004.64 517.878L975.011 556.758L945.384 595.638L915.757 634.517L886.131 673.397L856.504 712.277L826.877 751.156L797.25 790.036L767.624 828.916L737.997 867.795L708.371 906.675L678.744 945.554L649.117 984.434L619.491 1023.31L589.864 1062.19L560.237 1101.07L530.61 1139.95L500.983 1178.83V1217.72L530.61 1178.84L560.243 1139.96Z" fill="#5E66EA"/>
<path d="M560.241 1062.2L589.868 1023.32L619.495 984.438L649.121 945.558L678.748 906.678L708.375 867.799L738.001 828.919L767.628 790.04L797.252 751.164L826.881 712.277L856.508 673.397L886.132 634.521L915.758 595.641L945.385 556.762L975.01 517.878L1004.64 478.999L1034.26 440.119L1063.89 401.236H1034.26L1004.64 440.115L975.009 478.995L945.384 517.878L915.757 556.758L886.13 595.638L856.504 634.517L826.877 673.397L797.25 712.277L767.624 751.157L737.997 790.036L708.37 828.916L678.744 867.795L649.117 906.675L619.49 945.554L589.864 984.434L560.237 1023.31L530.61 1062.19L500.983 1101.07V1139.95L530.614 1101.08L560.241 1062.2Z" fill="#5E66EA"/>
<path d="M560.241 984.436L589.868 945.556L619.495 906.677L649.116 867.795L678.742 828.916L708.369 790.036L738 751.164L767.626 712.284L797.253 673.404L826.878 634.521L856.505 595.641L886.132 556.762L915.757 517.878L945.382 478.995L975.009 440.115L1004.64 401.236H975.009L945.382 440.115L915.756 478.995L886.13 517.878L856.504 556.758L826.877 595.638L797.25 634.517L767.624 673.397L737.997 712.277L708.371 751.156L678.744 790.036L649.117 828.916L619.49 867.795L589.864 906.675L560.237 945.554L530.61 984.434L500.983 1023.31V1062.19L530.61 1023.31L560.241 984.436Z" fill="#5E66EA"/>
<path d="M560.242 906.676L589.869 867.797L619.496 828.918L649.122 790.038L678.752 751.164L708.379 712.284L738.005 673.404L767.626 634.521L797.253 595.641L826.88 556.762L856.505 517.878L886.132 478.999L915.758 440.119L945.384 401.236H915.757L886.13 440.115L856.504 478.995L826.88 517.878L797.253 556.758L767.626 595.638L738 634.517L708.373 673.397L678.752 712.277L649.125 751.156L619.499 790.036L589.872 828.916L560.245 867.795L530.618 906.675L500.992 945.554V984.434L530.618 945.554L560.242 906.676Z" fill="#5E66EA"/>
<path d="M560.243 828.916L589.869 790.036L619.495 751.164L649.121 712.284L678.748 673.404L708.373 634.521L738 595.641L767.626 556.756L797.253 517.878L826.88 478.999L856.506 440.119L886.132 401.236H856.505L826.878 440.115L797.253 478.995L767.626 517.878L738 556.758L708.373 595.638L678.747 634.517L649.12 673.397L619.493 712.277L589.866 751.156L560.24 790.036L530.613 828.916L500.986 867.795V906.675L530.613 867.795L560.243 828.916Z" fill="#5E66EA"/>
<path d="M560.241 751.164L589.868 712.284L619.487 673.395L649.121 634.521L678.748 595.641L708.374 556.762L738 517.878L767.626 478.999L797.253 440.119L826.878 401.236H797.252L767.625 440.115L737.998 478.995L708.373 517.878L678.746 556.758L649.12 595.638L619.487 634.521L589.861 673.401L560.234 712.281L530.621 751.164L500.994 790.043V828.923L530.621 790.036L560.241 751.164Z" fill="#5E66EA"/>
<path d="M1271.27 1684.28L1300.91 1645.4L1330.53 1606.52L1360.16 1567.64L1389.79 1528.76L1419.41 1489.88L1449.04 1451L1478.67 1412.12L1508.29 1373.24L1537.92 1334.36L1567.55 1295.48L1597.17 1256.6L1626.8 1217.72L1656.43 1178.84L1686.04 1139.96L1715.67 1101.08L1745.29 1062.2L1774.92 1023.32L1804.55 984.438L1834.17 945.558L1863.8 906.678L1893.43 867.799L1923.05 828.919L1952.68 790.045L1982.31 751.156V712.277L1952.68 751.156L1923.05 790.045L1893.43 828.925L1863.8 867.804L1834.17 906.684L1804.55 945.563L1774.92 984.443L1745.29 1023.32L1715.67 1062.2L1686.04 1101.08L1656.41 1139.96L1626.79 1178.84L1597.16 1217.72L1567.53 1256.6L1537.91 1295.48L1508.28 1334.36L1478.65 1373.24L1449.03 1412.12L1419.4 1451L1389.77 1489.88L1360.15 1528.76L1330.52 1567.64L1300.89 1606.52L1271.27 1645.4L1241.64 1684.28L1212.01 1723.16L1182.39 1762.04H1212.01L1241.64 1723.16L1271.27 1684.28Z" fill="#5E66EA"/>
<path d="M1212.02 1684.28L1241.65 1645.4L1271.27 1606.51L1300.91 1567.64L1330.53 1528.76L1360.15 1489.87L1389.78 1450.99L1419.41 1412.11L1449.03 1373.23L1478.66 1334.35L1508.29 1295.47L1537.91 1256.59L1567.54 1217.71L1597.17 1178.83L1626.79 1139.95L1656.42 1101.07L1686.04 1062.2L1715.67 1023.32L1745.29 984.438L1774.92 945.558L1804.55 906.678L1834.17 867.799L1863.8 828.919L1893.43 790.04L1923.05 751.16L1952.68 712.277L1982.31 673.395V634.515L1952.68 673.395L1923.05 712.275L1893.43 751.154L1863.8 790.034L1834.17 828.914L1804.55 867.793L1774.92 906.673L1745.29 945.553L1715.67 984.432L1686.04 1023.31L1656.41 1062.19L1626.79 1101.07L1597.16 1139.95L1567.53 1178.83L1537.91 1217.71L1508.28 1256.59L1478.65 1295.47L1449.03 1334.35L1419.4 1373.23L1389.77 1412.11L1360.15 1450.99L1330.52 1489.87L1300.91 1528.76L1271.28 1567.64L1241.65 1606.52L1212.03 1645.4L1182.4 1684.28L1152.77 1723.15L1123.15 1762.03H1152.77L1182.4 1723.15L1212.02 1684.28Z" fill="#5E66EA"/>
<path d="M1152.77 1684.28L1182.4 1645.4L1212.02 1606.52L1241.65 1567.64L1271.28 1528.76L1300.91 1489.88L1330.53 1451L1360.16 1412.12L1389.79 1373.24L1419.41 1334.36L1449.04 1295.48L1478.67 1256.6L1508.29 1217.72L1537.92 1178.84L1567.55 1139.96L1597.17 1101.08L1626.8 1062.2L1656.43 1023.32L1686.04 984.436L1715.67 945.556L1745.29 906.676L1774.92 867.797L1804.55 828.918L1834.17 790.038L1863.8 751.158L1893.43 712.282L1923.05 673.396L1952.68 634.515L1982.31 595.639V556.754L1952.68 595.639L1923.05 634.519L1893.43 673.399L1863.8 712.282L1834.17 751.162L1804.55 790.042L1774.92 828.921L1745.29 867.8L1715.67 906.68L1686.04 945.56L1656.41 984.439L1626.79 1023.32L1597.16 1062.2L1567.53 1101.08L1537.91 1139.96L1508.28 1178.84L1478.65 1217.72L1449.03 1256.6L1419.4 1295.48L1389.77 1334.36L1360.15 1373.24L1330.52 1412.12L1300.89 1451L1271.27 1489.88L1241.64 1528.75L1212.01 1567.63L1182.39 1606.51L1152.76 1645.39L1123.13 1684.27L1093.51 1723.15L1063.88 1762.03H1093.51L1123.13 1723.15L1152.77 1684.28Z" fill="#5E66EA"/>
<path d="M1093.52 1684.28L1123.14 1645.39L1152.77 1606.51L1182.4 1567.63L1212.02 1528.75L1241.65 1489.87L1271.28 1450.99L1300.91 1412.11L1330.53 1373.23L1360.16 1334.35L1389.79 1295.47L1419.41 1256.59L1449.04 1217.71L1478.67 1178.83L1508.29 1139.95L1537.92 1101.07L1567.55 1062.19L1597.17 1023.31L1626.8 984.433L1656.43 945.554L1686.04 906.678L1715.67 867.798L1745.29 828.918L1774.92 790.038L1804.55 751.159L1834.17 712.279L1863.8 673.399L1893.43 634.52L1923.05 595.637L1952.68 556.757L1982.31 517.878V478.998L1952.68 517.878L1923.05 556.757L1893.43 595.637L1863.8 634.516L1834.17 673.396L1804.55 712.275L1774.92 751.155L1745.29 790.035L1715.67 828.914L1686.04 867.794L1656.41 906.674L1626.79 945.554L1597.16 984.433L1567.53 1023.31L1537.91 1062.19L1508.28 1101.07L1478.65 1139.95L1449.03 1178.83L1419.4 1217.71L1389.77 1256.59L1360.15 1295.47L1330.52 1334.35L1300.89 1373.23L1271.27 1412.11L1241.64 1450.99L1212.01 1489.87L1182.39 1528.75L1152.76 1567.63L1123.13 1606.51L1093.52 1645.39L1063.89 1684.27L1034.26 1723.15L1004.64 1762.04H1034.27L1063.89 1723.16L1093.52 1684.28Z" fill="#5E66EA"/>
<path d="M975.011 1684.28L1004.64 1645.4L1034.26 1606.52L1063.89 1567.64L1093.52 1528.76L1123.14 1489.88L1152.77 1451L1182.4 1412.12L1212.02 1373.24L1241.65 1334.36L1271.28 1295.48L1300.9 1256.6L1330.53 1217.72L1360.16 1178.84L1389.78 1139.96L1419.41 1101.08L1449.04 1062.2L1478.66 1023.32L1508.29 984.438L1537.92 945.558L1567.54 906.678L1597.17 867.799L1626.8 828.919L1656.42 790.04L1686.04 751.164L1715.67 712.284L1745.29 673.395L1774.92 634.521L1804.55 595.641L1834.18 556.762L1863.8 517.878L1893.43 478.995L1923.05 440.115L1952.68 401.236H1923.05L1893.43 440.115L1863.8 478.995L1834.17 517.878L1804.55 556.758L1774.92 595.638L1745.29 634.521L1715.66 673.401L1686.04 712.281L1656.41 751.16L1626.78 790.04L1597.16 828.919L1567.53 867.799L1537.9 906.678L1508.28 945.558L1478.65 984.438L1449.02 1023.32L1419.4 1062.2L1389.77 1101.08L1360.14 1139.96L1330.52 1178.84L1300.89 1217.72L1271.26 1256.6L1241.64 1295.48L1212.01 1334.35L1182.38 1373.23L1152.76 1412.11L1123.13 1450.99L1093.5 1489.87L1063.89 1528.76L1034.26 1567.64L1004.64 1606.52L975.01 1645.4L945.383 1684.28L915.756 1723.15L886.13 1762.03H915.756L945.383 1723.15L975.011 1684.28Z" fill="#5E66EA"/>
<path d="M1034.27 1684.28L1063.89 1645.4L1093.52 1606.52L1123.15 1567.64L1152.77 1528.76L1182.4 1489.88L1212.03 1451L1241.65 1412.12L1271.28 1373.24L1300.91 1334.36L1330.53 1295.48L1360.16 1256.6L1389.79 1217.72L1419.41 1178.84L1449.04 1139.96L1478.67 1101.08L1508.29 1062.2L1537.92 1023.32L1567.55 984.439L1597.17 945.56L1626.8 906.68L1656.43 867.801L1686.04 828.916L1715.67 790.036L1745.3 751.164L1774.92 712.284L1804.55 673.404L1834.17 634.521L1863.8 595.641L1893.43 556.756L1923.05 517.878L1952.68 478.995L1982.31 440.115V401.236L1952.68 440.115L1923.05 478.995L1893.43 517.878L1863.8 556.758L1834.17 595.638L1804.55 634.517L1774.92 673.397L1745.29 712.277L1715.67 751.157L1686.04 790.036L1656.41 828.916L1626.79 867.795L1597.16 906.675L1567.53 945.554L1537.91 984.434L1508.28 1023.31L1478.65 1062.19L1449.03 1101.07L1419.4 1139.95L1389.77 1178.83L1360.15 1217.71L1330.52 1256.59L1300.89 1295.47L1271.27 1334.35L1241.64 1373.23L1212.01 1412.11L1182.39 1450.99L1152.76 1489.87L1123.13 1528.75L1093.51 1567.63L1063.88 1606.51L1034.25 1645.39L1004.63 1684.27L975.001 1723.15L945.374 1762.03H975.001L1004.64 1723.16L1034.27 1684.28Z" fill="#5E66EA"/>
</g>
</g>
<g clip-path="url(#clip3_2217_385)">
<mask id="mask3_2217_385" style="mask-type:luminance" maskUnits="userSpaceOnUse" x="1201" y="751" width="694" height="840">
<path d="M1894.91 751.083H1201V1590.23H1894.91V751.083Z" fill="white"/>
</mask>
<g mask="url(#mask3_2217_385)">
<path d="M1327.61 1666.88L1356.69 1628.81L1385.77 1590.74L1414.85 1552.67L1443.93 1514.6L1473 1476.53L1502.08 1438.46L1531.16 1400.39L1560.24 1362.32L1589.32 1324.25L1618.39 1286.18L1647.47 1248.11L1676.55 1210.04L1705.63 1171.97L1734.69 1133.89L1763.77 1095.82L1792.85 1057.76L1821.93 1019.69L1851.01 981.617L1880.08 943.547L1909.16 905.477L1938.24 867.408L1967.32 829.338L1996.4 791.268L2025.47 753.202L2054.55 715.132L2083.63 677.063L2112.71 638.99L2141.79 600.92L2170.86 562.845L2199.94 524.777L2229.02 486.704L2258.09 448.634L2287.18 410.565H2258.09L2229.02 448.634L2199.94 486.704L2170.86 524.777L2141.79 562.847L2112.71 600.917L2083.63 638.986L2054.55 677.056L2025.47 715.125L1996.4 753.195L1967.32 791.265L1938.24 829.334L1909.16 867.404L1880.08 905.474L1851.01 943.543L1821.93 981.613L1792.85 1019.68L1763.77 1057.75L1734.69 1095.82L1705.62 1133.89L1676.54 1171.96L1647.47 1210.03L1618.39 1248.1L1589.32 1286.17L1560.24 1324.24L1531.16 1362.31L1502.08 1400.38L1473 1438.45L1443.93 1476.52L1414.85 1514.59L1385.77 1552.66L1356.69 1590.73L1327.61 1628.8L1298.54 1666.87L1269.46 1704.94L1240.38 1743.01H1269.46L1298.54 1704.94L1327.61 1666.88Z" fill="#5E66EA"/>
<path d="M1269.45 1666.88L1298.53 1628.81L1327.61 1590.74L1356.69 1552.67L1385.77 1514.6L1414.84 1476.53L1443.92 1438.46L1473 1400.38L1502.08 1362.31L1531.16 1324.24L1560.23 1286.18L1589.31 1248.11L1618.39 1210.04L1647.47 1171.97L1676.54 1133.9L1705.62 1095.83L1734.7 1057.76L1763.78 1019.68L1792.86 981.615L1821.94 943.545L1851.01 905.476L1880.09 867.406L1909.17 829.336L1938.25 791.267L1967.32 753.202L1996.4 715.133L2025.48 677.063L2054.56 638.99L2083.64 600.92L2112.72 562.851L2141.78 524.777L2170.86 486.708L2199.93 448.638L2229.02 410.565H2199.94L2170.86 448.634L2141.78 486.704L2112.71 524.777L2083.63 562.847L2054.55 600.917L2025.47 638.986L1996.4 677.056L1967.32 715.126L1938.24 753.195L1909.16 791.265L1880.08 829.334L1851.01 867.404L1821.93 905.474L1792.85 943.543L1763.77 981.613L1734.69 1019.68L1705.62 1057.75L1676.54 1095.82L1647.46 1133.89L1618.38 1171.96L1589.3 1210.03L1560.22 1248.1L1531.15 1286.17L1502.07 1324.24L1472.99 1362.31L1443.91 1400.38L1414.83 1438.45L1385.76 1476.52L1356.68 1514.59L1327.6 1552.66L1298.52 1590.73L1269.44 1628.8L1240.37 1666.87L1211.29 1704.94L1182.21 1743.01H1211.29L1240.37 1704.94L1269.45 1666.88Z" fill="#5E66EA"/>
<path d="M1211.31 1666.88L1240.38 1628.81L1269.46 1590.74L1298.54 1552.67L1327.62 1514.6L1356.7 1476.53L1385.77 1438.46L1414.85 1400.39L1443.93 1362.32L1473.01 1324.25L1502.09 1286.18L1531.16 1248.11L1560.24 1210.04L1589.31 1171.96L1618.38 1133.89L1647.46 1095.83L1676.54 1057.76L1705.62 1019.69L1734.7 981.617L1763.77 943.547L1792.85 905.477L1821.93 867.408L1851.01 829.338L1880.09 791.265L1909.17 753.202L1938.24 715.126L1967.32 677.056L1996.4 638.99L2025.48 600.92L2054.55 562.851L2083.63 524.777L2112.71 486.708L2141.79 448.638L2170.87 410.565H2141.79L2112.71 448.634L2083.63 486.704L2054.55 524.777L2025.48 562.847L1996.4 600.917L1967.32 638.99L1938.24 677.059L1909.17 715.129L1880.09 753.202L1851.01 791.272L1821.93 829.342L1792.85 867.411L1763.77 905.481L1734.7 943.551L1705.62 981.62L1676.54 1019.69L1647.46 1057.76L1618.38 1095.83L1589.31 1133.9L1560.23 1171.97L1531.15 1210.04L1502.07 1248.11L1472.99 1286.18L1443.92 1324.25L1414.84 1362.32L1385.76 1400.39L1356.68 1438.46L1327.6 1476.53L1298.53 1514.59L1269.45 1552.66L1240.37 1590.73L1211.29 1628.8L1182.21 1666.87L1153.14 1704.94L1124.06 1743.01H1153.14L1182.21 1704.94L1211.31 1666.88Z" fill="#5E66EA"/>
<path d="M1153.15 1666.88L1182.22 1628.81L1211.3 1590.74L1240.38 1552.67L1269.46 1514.59L1298.53 1476.53L1327.61 1438.45L1356.69 1400.38L1385.77 1362.31L1414.85 1324.24L1443.92 1286.18L1473 1248.11L1502.08 1210.04L1531.16 1171.97L1560.24 1133.9L1589.31 1095.83L1618.39 1057.76L1647.47 1019.69L1676.55 981.617L1705.63 943.547L1734.71 905.477L1763.78 867.408L1792.86 829.338L1821.94 791.268L1851.01 753.202L1880.09 715.133L1909.17 677.063L1938.24 638.99L1967.32 600.92L1996.39 562.845L2025.48 524.777L2054.55 486.708L2083.63 448.638L2112.71 410.565H2083.63L2054.55 448.634L2025.48 486.704L1996.39 524.777L1967.32 562.847L1938.24 600.917L1909.16 638.986L1880.08 677.056L1851 715.126L1821.93 753.195L1792.85 791.265L1763.77 829.334L1734.69 867.404L1705.61 905.474L1676.54 943.543L1647.46 981.613L1618.38 1019.68L1589.3 1057.75L1560.22 1095.82L1531.14 1133.89L1502.07 1171.96L1472.99 1210.03L1443.91 1248.1L1414.83 1286.17L1385.76 1324.24L1356.68 1362.31L1327.6 1400.38L1298.52 1438.45L1269.44 1476.52L1240.36 1514.59L1211.29 1552.66L1182.21 1590.73L1153.13 1628.8L1124.05 1666.87L1094.97 1704.94V1743.01L1124.05 1704.94L1153.15 1666.88Z" fill="#5E66EA"/>
<path d="M1153.14 1590.73L1182.22 1552.66L1211.29 1514.59L1240.37 1476.52L1269.45 1438.46L1298.53 1400.39L1327.61 1362.32L1356.68 1324.25L1385.76 1286.18L1414.84 1248.11L1443.92 1210.03L1473 1171.96L1502.08 1133.89L1531.15 1095.82L1560.23 1057.76L1589.31 1019.69L1618.39 981.617L1647.47 943.547L1676.54 905.477L1705.62 867.408L1734.7 829.334L1763.78 791.265L1792.85 753.202L1821.93 715.133L1851.01 677.063L1880.09 638.99L1909.17 600.92L1938.24 562.851L1967.32 524.777L1996.4 486.708L2025.48 448.634L2054.55 410.565H2025.48L1996.4 448.634L1967.32 486.704L1938.24 524.777L1909.16 562.847L1880.09 600.917L1851.01 638.986L1821.93 677.056L1792.85 715.125L1763.77 753.195L1734.7 791.265L1705.62 829.334L1676.54 867.404L1647.46 905.474L1618.38 943.543L1589.31 981.613L1560.23 1019.68L1531.15 1057.75L1502.07 1095.82L1472.99 1133.89L1443.91 1171.96L1414.84 1210.03L1385.76 1248.1L1356.68 1286.17L1327.6 1324.24L1298.52 1362.31L1269.45 1400.38L1240.37 1438.45L1211.29 1476.52L1182.21 1514.59L1153.13 1552.66L1124.06 1590.73L1094.98 1628.8V1666.87L1124.06 1628.8L1153.14 1590.73Z" fill="#5E66EA"/>
<path d="M1153.15 1514.59L1182.23 1476.52L1211.3 1438.46L1240.38 1400.39L1269.46 1362.32L1298.54 1324.25L1327.62 1286.18L1356.69 1248.11L1385.77 1210.04L1414.85 1171.97L1443.93 1133.9L1473.01 1095.82L1502.08 1057.76L1531.16 1019.69L1560.23 981.615L1589.31 943.545L1618.38 905.476L1647.46 867.406L1676.54 829.336L1705.62 791.267L1734.7 753.202L1763.78 715.133L1792.86 677.063L1821.93 638.99L1851.01 600.915L1880.09 562.845L1909.17 524.777L1938.24 486.708L1967.32 448.638L1996.4 410.565H1967.32L1938.24 448.634L1909.16 486.704L1880.09 524.777L1851.01 562.845L1821.93 600.915L1792.85 638.984L1763.77 677.054L1734.7 715.124L1705.62 753.193L1676.54 791.263L1647.46 829.333L1618.38 867.402L1589.31 905.472L1560.23 943.542L1531.15 981.611L1502.07 1019.68L1472.99 1057.75L1443.91 1095.82L1414.84 1133.89L1385.76 1171.96L1356.68 1210.03L1327.6 1248.1L1298.52 1286.17L1269.45 1324.24L1240.37 1362.31L1211.29 1400.38L1182.21 1438.45L1153.13 1476.52L1124.06 1514.59L1094.98 1552.66V1590.73L1124.06 1552.66L1153.15 1514.59Z" fill="#5E66EA"/>
<path d="M1153.15 1438.45L1182.22 1400.38L1211.3 1362.31L1240.38 1324.24L1269.46 1286.18L1298.53 1248.11L1327.61 1210.03L1356.69 1171.96L1385.77 1133.89L1414.85 1095.82L1443.92 1057.76L1473 1019.69L1502.08 981.617L1531.16 943.547L1560.24 905.477L1589.31 867.404L1618.39 829.334L1647.47 791.265L1676.54 753.202L1705.62 715.133L1734.7 677.063L1763.78 638.99L1792.85 600.92L1821.93 562.851L1851.01 524.777L1880.09 486.704L1909.17 448.634L1938.24 410.565H1909.17L1880.09 448.634L1851.02 486.704L1821.93 524.777L1792.85 562.847L1763.78 600.917L1734.7 638.986L1705.62 677.056L1676.54 715.125L1647.46 753.195L1618.39 791.265L1589.31 829.334L1560.24 867.404L1531.16 905.474L1502.08 943.543L1473 981.613L1443.92 1019.68L1414.85 1057.75L1385.77 1095.82L1356.69 1133.89L1327.61 1171.96L1298.53 1210.03L1269.45 1248.1L1240.38 1286.17L1211.3 1324.24L1182.22 1362.31L1153.14 1400.38L1124.06 1438.45L1094.99 1476.52V1514.59L1124.06 1476.52L1153.15 1438.45Z" fill="#5E66EA"/>
<path d="M1153.15 1362.31L1182.22 1324.24L1211.3 1286.18L1240.38 1248.11L1269.46 1210.04L1298.54 1171.97L1327.61 1133.9L1356.69 1095.83L1385.77 1057.76L1414.84 1019.68L1443.92 981.615L1473 943.545L1502.07 905.476L1531.15 867.406L1560.23 829.336L1589.31 791.267L1618.39 753.202L1647.47 715.133L1676.54 677.063L1705.62 638.99L1734.7 600.92L1763.78 562.845L1792.85 524.777L1821.93 486.704L1851.01 448.634L1880.09 410.565H1851.01L1821.93 448.634L1792.85 486.704L1763.78 524.777L1734.7 562.847L1705.62 600.917L1676.54 638.986L1647.46 677.056L1618.39 715.126L1589.31 753.195L1560.23 791.265L1531.15 829.334L1502.07 867.404L1473 905.474L1443.92 943.543L1414.84 981.613L1385.76 1019.68L1356.68 1057.75L1327.61 1095.82L1298.53 1133.89L1269.45 1171.96L1240.37 1210.03L1211.29 1248.1L1182.22 1286.17L1153.14 1324.24L1124.06 1362.31L1094.98 1400.38V1438.45L1124.06 1400.38L1153.15 1362.31Z" fill="#5E66EA"/>
<path d="M1153.15 1286.18L1182.22 1248.11L1211.3 1210.04L1240.38 1171.97L1269.46 1133.9L1298.54 1095.83L1327.61 1057.76L1356.69 1019.69L1385.77 981.618L1414.85 943.549L1443.93 905.476L1473 867.406L1502.08 829.336L1531.16 791.267L1560.23 753.202L1589.31 715.133L1618.39 677.063L1647.47 638.99L1676.54 600.92L1705.62 562.851L1734.7 524.777L1763.78 486.708L1792.85 448.638L1821.93 410.565H1792.85L1763.77 448.634L1734.69 486.704L1705.62 524.777L1676.54 562.847L1647.46 600.917L1618.39 638.986L1589.31 677.056L1560.23 715.126L1531.15 753.195L1502.07 791.265L1473 829.334L1443.92 867.404L1414.84 905.474L1385.76 943.543L1356.68 981.613L1327.61 1019.68L1298.53 1057.75L1269.45 1095.82L1240.37 1133.89L1211.29 1171.96L1182.22 1210.03L1153.14 1248.1L1124.06 1286.17L1094.98 1324.24V1362.31L1124.06 1324.24L1153.15 1286.18Z" fill="#5E66EA"/>
<path d="M1153.15 1210.03L1182.22 1171.96L1211.3 1133.89L1240.38 1095.83L1269.45 1057.76L1298.53 1019.69L1327.61 981.617L1356.69 943.547L1385.77 905.477L1414.84 867.408L1443.92 829.338L1473 791.268L1502.08 753.202L1531.16 715.126L1560.23 677.054L1589.31 638.99L1618.39 600.92L1647.47 562.851L1676.54 524.777L1705.62 486.708L1734.7 448.638L1763.78 410.565H1734.7L1705.62 448.634L1676.54 486.704L1647.47 524.777L1618.39 562.847L1589.31 600.917L1560.23 638.99L1531.16 677.059L1502.08 715.129L1473 753.202L1443.92 791.272L1414.84 829.341L1385.77 867.411L1356.69 905.481L1327.61 943.551L1298.53 981.62L1269.45 1019.69L1240.38 1057.76L1211.3 1095.83L1182.22 1133.9L1153.14 1171.97L1124.06 1210.04L1094.99 1248.11V1286.18L1124.06 1248.11L1153.15 1210.03Z" fill="#5E66EA"/>
<path d="M1153.15 1133.89L1182.22 1095.82L1211.3 1057.76L1240.38 1019.69L1269.46 981.617L1298.54 943.545L1327.62 905.476L1356.7 867.406L1385.76 829.334L1414.84 791.265L1443.92 753.202L1473 715.133L1502.08 677.063L1531.15 638.99L1560.23 600.92L1589.31 562.851L1618.39 524.777L1647.47 486.708L1676.54 448.634L1705.62 410.565H1676.54L1647.46 448.634L1618.38 486.704L1589.31 524.777L1560.23 562.847L1531.15 600.917L1502.08 638.986L1473 677.056L1443.92 715.125L1414.84 753.195L1385.76 791.265L1356.69 829.334L1327.61 867.404L1298.53 905.474L1269.45 943.543L1240.37 981.613L1211.3 1019.68L1182.22 1057.75L1153.14 1095.82L1124.06 1133.89L1094.98 1171.96V1210.03L1124.06 1171.96L1153.15 1133.89Z" fill="#5E66EA"/>
<path d="M1153.14 1057.76L1182.22 1019.69L1211.3 981.617L1240.38 943.547L1269.46 905.477L1298.53 867.408L1327.61 829.338L1356.69 791.268L1385.77 753.202L1414.85 715.126L1443.92 677.056L1473 638.99L1502.08 600.92L1531.16 562.851L1560.23 524.777L1589.31 486.708L1618.39 448.638L1647.47 410.565H1618.39L1589.31 448.634L1560.23 486.704L1531.15 524.777L1502.08 562.847L1473 600.917L1443.92 638.986L1414.84 677.056L1385.76 715.126L1356.69 753.195L1327.61 791.265L1298.53 829.334L1269.45 867.404L1240.37 905.474L1211.3 943.543L1182.22 981.613L1153.14 1019.68L1124.06 1057.75L1094.98 1095.82V1133.89L1124.07 1095.83L1153.14 1057.76Z" fill="#5E66EA"/>
<path d="M1153.14 981.615L1182.22 943.545L1211.3 905.476L1240.37 867.404L1269.45 829.334L1298.53 791.265L1327.61 753.202L1356.69 715.133L1385.77 677.063L1414.84 638.99L1443.92 600.92L1473 562.851L1502.08 524.777L1531.15 486.704L1560.23 448.634L1589.31 410.565H1560.23L1531.15 448.634L1502.08 486.704L1473 524.777L1443.92 562.847L1414.84 600.917L1385.76 638.986L1356.69 677.056L1327.61 715.125L1298.53 753.195L1269.45 791.265L1240.37 829.334L1211.3 867.404L1182.22 905.474L1153.14 943.543L1124.06 981.613L1094.98 1019.68V1057.75L1124.06 1019.68L1153.14 981.615Z" fill="#5E66EA"/>
<path d="M1153.15 905.475L1182.22 867.406L1211.3 829.336L1240.38 791.267L1269.46 753.202L1298.54 715.132L1327.62 677.063L1356.69 638.99L1385.77 600.92L1414.85 562.851L1443.92 524.777L1473 486.708L1502.08 448.638L1531.15 410.565H1502.08L1473 448.634L1443.92 486.704L1414.85 524.777L1385.77 562.847L1356.69 600.917L1327.61 638.986L1298.53 677.056L1269.46 715.125L1240.38 753.195L1211.3 791.265L1182.23 829.334L1153.15 867.404L1124.07 905.474L1094.99 943.543V981.613L1124.07 943.543L1153.15 905.475Z" fill="#5E66EA"/>
<path d="M1153.15 829.334L1182.22 791.265L1211.3 753.202L1240.38 715.133L1269.46 677.063L1298.53 638.99L1327.61 600.92L1356.69 562.845L1385.77 524.777L1414.85 486.708L1443.92 448.638L1473 410.565H1443.92L1414.84 448.634L1385.77 486.704L1356.69 524.777L1327.61 562.847L1298.53 600.917L1269.45 638.986L1240.38 677.056L1211.3 715.125L1182.22 753.195L1153.14 791.265L1124.06 829.334L1094.99 867.404V905.474L1124.06 867.404L1153.15 829.334Z" fill="#5E66EA"/>
<path d="M1153.14 753.202L1182.22 715.133L1211.29 677.054L1240.38 638.99L1269.46 600.92L1298.53 562.851L1327.61 524.777L1356.69 486.708L1385.77 448.638L1414.84 410.565H1385.77L1356.69 448.634L1327.61 486.704L1298.53 524.777L1269.45 562.847L1240.38 600.917L1211.29 638.99L1182.22 677.059L1153.14 715.129L1124.07 753.202L1094.99 791.272V829.342L1124.07 791.265L1153.14 753.202Z" fill="#5E66EA"/>
</g>
</g>
<defs>
<clipPath id="clip0_2217_385">
<rect width="628" height="849" fill="white"/>
</clipPath>
<clipPath id="clip1_2217_385">
<rect width="628" height="804" fill="white" transform="translate(627)"/>
</clipPath>
<clipPath id="clip2_2217_385">
<rect width="628" height="48" fill="white" transform="translate(609 801)"/>
</clipPath>
<clipPath id="clip3_2217_385">
<rect width="54" height="47" fill="white" transform="translate(1201 802)"/>
</clipPath>
</defs>
</svg>
