<svg width="421" height="409" viewBox="0 0 421 409" fill="none" xmlns="http://www.w3.org/2000/svg">
<path d="M293.084 379.524C226.035 418.229 117.334 418.229 50.2857 379.524C-16.7631 340.82 -16.7607 278.055 50.2857 239.343C117.332 200.631 226.035 200.638 293.084 239.343C360.133 278.048 360.131 340.817 293.084 379.524Z" fill="black"/>
<path d="M279.793 251.811C276.1 239.331 67.2733 239.331 63.5797 251.811H61.9766V301.711C61.9766 317.923 72.6852 334.135 94.11 346.503C136.955 371.235 206.43 371.235 249.265 346.503C270.683 334.133 281.399 317.921 281.399 301.711V251.811H279.793Z" fill="#5E66EA"/>
<path d="M249.266 296.602C206.421 321.334 136.946 321.334 94.1105 296.602C51.2753 271.87 51.2681 231.756 94.1105 207.017C136.953 182.278 206.414 182.285 249.266 207.017C292.118 231.749 292.108 271.865 249.266 296.602Z" fill="#39F7B2"/>
<path d="M350.331 47.897L353.724 79.7738C354.678 88.7343 358.673 97.0974 365.045 103.469C371.417 109.841 379.78 113.837 388.74 114.79L420.617 118.183L388.74 121.575C379.78 122.528 371.417 126.523 365.045 132.895C358.673 139.267 354.678 147.63 353.724 156.591L350.331 188.467L346.94 156.591C345.986 147.63 341.99 139.267 335.619 132.896C329.247 126.524 320.884 122.528 311.924 121.575L280.047 118.183L311.924 114.79C320.884 113.836 329.247 109.84 335.619 103.469C341.99 97.097 345.986 88.7341 346.94 79.7738L350.331 47.897Z" fill="#39F7B2"/>
<path d="M226.894 0L228.747 17.4216C229.268 22.3179 231.452 26.8877 234.934 30.3692C238.416 33.8508 242.986 36.0338 247.882 36.5544L265.301 38.4096L247.882 40.2624C242.985 40.7835 238.415 42.967 234.933 46.449C231.451 49.9309 229.268 54.501 228.747 59.3976L226.894 76.8168L225.039 59.3976C224.518 54.5012 222.335 49.9312 218.854 46.4492C215.372 42.9672 210.802 40.7836 205.906 40.2624L188.484 38.4096L205.906 36.5544C210.802 36.0337 215.372 33.8506 218.853 30.369C222.335 26.8874 224.518 22.3177 225.039 17.4216L226.894 0Z" fill="#5D63F2"/>
</svg>
