<svg width="359" height="359" viewBox="0 0 359 359" fill="none" xmlns="http://www.w3.org/2000/svg">
<mask id="mask0_2206_235" style="mask-type:luminance" maskUnits="userSpaceOnUse" x="0" y="0" width="359" height="359">
<path d="M358.28 0.697266H0.699219V358.278H358.28V0.697266Z" fill="white"/>
</mask>
<g mask="url(#mask0_2206_235)">
<path d="M144.011 305.14C223.159 305.14 287.322 240.977 287.322 161.828C287.322 82.6793 223.159 18.5166 144.011 18.5166C64.8619 18.5166 0.699219 82.6793 0.699219 161.828C0.699219 240.977 64.8619 305.14 144.011 305.14Z" fill="#00FCAC"/>
<mask id="mask1_2206_235" style="mask-type:luminance" maskUnits="userSpaceOnUse" x="0" y="18" width="288" height="288">
<path d="M144.011 305.14C223.159 305.14 287.322 240.977 287.322 161.828C287.322 82.6793 223.159 18.5166 144.011 18.5166C64.8619 18.5166 0.699219 82.6793 0.699219 161.828C0.699219 240.977 64.8619 305.14 144.011 305.14Z" fill="white"/>
</mask>
<g mask="url(#mask1_2206_235)">
<path d="M155.72 -238.358L-200.785 354.732L-179.713 367.398L176.791 -225.692L155.72 -238.358Z" fill="black"/>
<path d="M194.664 -215.154L-161.839 377.934L-140.767 390.6L215.738 -202.488L194.664 -215.154Z" fill="black"/>
<path d="M233.302 -191.436L-123.203 401.652L-102.131 414.319L254.373 -178.77L233.302 -191.436Z" fill="black"/>
<path d="M272.247 -168.233L-84.2578 424.857L-63.1862 437.523L293.318 -155.567L272.247 -168.233Z" fill="black"/>
<path d="M311.192 -145.03L-45.3125 448.06L-24.2409 460.725L332.263 -132.364L311.192 -145.03Z" fill="black"/>
<path d="M349.828 -121.312L-6.67578 471.777L14.3958 484.443L370.899 -108.645L349.828 -121.312Z" fill="black"/>
<path d="M388.773 -98.1084L32.2695 494.981L53.3412 507.647L409.844 -85.4423L388.773 -98.1084Z" fill="black"/>
<path d="M427.718 -74.9043L71.2148 518.185L92.2865 530.851L448.791 -62.2382L427.718 -74.9043Z" fill="black"/>
<path d="M466.148 -52.0098L109.645 541.079L130.716 553.746L487.221 -39.3437L466.148 -52.0098Z" fill="black"/>
<path d="M504.784 -28.292L148.28 564.797L169.352 577.464L525.856 -15.6259L504.784 -28.292Z" fill="black"/>
<path d="M543.731 -5.08838L187.227 588.002L208.298 600.666L564.802 7.5777L543.731 -5.08838Z" fill="black"/>
</g>
<path d="M344.285 47.8984L346.683 67.6861C347.883 79.0791 356.878 88.0736 368.87 89.8725L388.659 92.2709L368.271 94.0699C356.878 95.2692 347.883 104.263 346.084 116.256L344.285 136.044L341.887 116.256C340.687 104.863 331.693 95.8688 319.701 94.0699L299.914 91.6713L319.701 89.2727C331.094 88.0736 340.088 79.0791 341.887 67.0865L344.285 47.8984Z" fill="white"/>
<path d="M293.918 4.7251L295.118 17.917C296.318 25.7122 302.314 31.7085 310.109 32.3081L323.301 33.5073L310.109 34.7065C302.314 35.9058 296.318 41.9021 295.717 49.6972L294.519 62.8892L292.72 49.6972C292.119 41.9021 286.123 35.9058 278.328 35.3063L265.137 34.1069L278.328 32.9077C286.123 32.3081 292.119 26.3118 292.72 18.5166L293.918 4.7251Z" fill="#FFC776"/>
<path d="M40.7539 345.827L62.3394 358.801L218.04 99.7748L196.454 86.7998L40.7539 345.827Z" fill="#5E66EA"/>
<path d="M161.405 144.773L182.991 157.748L217.9 99.6728L196.314 86.6978L161.405 144.773Z" fill="white"/>
<path d="M275.931 338.718C321.299 338.718 358.08 301.939 358.08 256.57C358.08 211.2 321.299 174.42 275.931 174.42C230.56 174.42 193.781 211.2 193.781 256.57C193.781 301.939 230.56 338.718 275.931 338.718Z" fill="#5E66EA"/>
</g>
</svg>
