<svg width="91" height="20" viewBox="0 0 91 20" fill="none" xmlns="http://www.w3.org/2000/svg">
<g clip-path="url(#clip0_2409_5365)">
<path d="M0 19.8307V4.3913H2.86249V5.78504H3.27933C3.53985 5.33576 3.95016 4.93568 4.50377 4.58806C5.05738 4.24044 5.85198 4.06335 6.88104 4.06335C7.8059 4.06335 8.65911 4.29291 9.44393 4.74875C10.2288 5.20787 10.8605 5.87687 11.336 6.75903C11.8114 7.64119 12.0524 8.71027 12.0524 9.96629V10.3369C12.0524 11.5929 11.8147 12.662 11.336 13.5441C10.8573 14.4263 10.2288 15.0986 9.44393 15.5544C8.65911 16.0102 7.8059 16.2398 6.88104 16.2398C6.1874 16.2398 5.60774 16.1578 5.1388 15.9971C4.66986 15.8331 4.2921 15.6265 4.00878 15.3707C3.72221 15.1149 3.49751 14.8559 3.32817 14.5935H2.91134V19.8275H0V19.8307ZM6.00178 13.6884C6.91035 13.6884 7.65935 13.3965 8.25204 12.8161C8.84473 12.2356 9.14107 11.3863 9.14107 10.2713V10.0384C9.14107 8.92344 8.84147 8.07407 8.24227 7.49361C7.64307 6.91316 6.89407 6.62129 6.00178 6.62129C5.10949 6.62129 4.36374 6.91316 3.76128 7.49361C3.16208 8.07407 2.86249 8.92344 2.86249 10.0384V10.2713C2.86249 11.3863 3.16208 12.2356 3.76128 12.8161C4.36374 13.3965 5.10949 13.6884 6.00178 13.6884Z" fill="white"/>
<path d="M17.0577 16.2458C16.2403 16.2458 15.5109 16.1016 14.8661 15.8162C14.218 15.5309 13.7068 15.1112 13.3323 14.5602C12.9545 14.0093 12.7656 13.3403 12.7656 12.55C12.7656 11.7596 12.9545 11.0972 13.3323 10.5626C13.71 10.0281 14.2311 9.62473 14.9019 9.35254C15.5728 9.08035 16.338 8.94588 17.1978 8.94588H20.3371V8.29329C20.3371 7.75218 20.1677 7.30618 19.829 6.95528C19.4904 6.60766 18.953 6.43386 18.2138 6.43386C17.4908 6.43386 16.9503 6.60111 16.5986 6.93233C16.2436 7.26683 16.0124 7.69643 15.9049 8.22114L13.228 7.31602C13.4137 6.72573 13.71 6.18791 14.1171 5.69927C14.5241 5.21064 15.0712 4.81711 15.7551 4.51213C16.439 4.21042 17.2759 4.05957 18.2594 4.05957C19.7672 4.05957 20.959 4.43998 21.8383 5.19752C22.7143 5.95835 23.1539 7.05695 23.1539 8.49661V12.7959C23.1539 13.2616 23.3689 13.4944 23.802 13.4944H24.7236V15.9113H22.786C22.2161 15.9113 21.7471 15.7736 21.3791 15.4916C21.0111 15.2128 20.8255 14.8423 20.8255 14.3766V14.3536H20.3859C20.324 14.5406 20.1872 14.7832 19.9691 15.0849C19.7541 15.3866 19.4155 15.6556 18.953 15.8884C18.4906 16.1278 17.8588 16.2458 17.0577 16.2458ZM17.5657 13.8748C18.3799 13.8748 19.0475 13.6453 19.562 13.1894C20.0765 12.7336 20.3338 12.1236 20.3338 11.3661V11.1333H17.4029C16.8656 11.1333 16.4422 11.2513 16.1329 11.4809C15.8235 11.7137 15.6704 12.0384 15.6704 12.4581C15.6704 12.8746 15.8333 13.219 16.1557 13.4813C16.4813 13.7437 16.9503 13.8748 17.5657 13.8748Z" fill="white"/>
<path d="M24.7246 10.2029V9.83234C24.7246 8.62224 24.9623 7.58923 25.441 6.73003C25.9165 5.87082 26.5515 5.21166 27.3461 4.75254C28.1374 4.29671 29.0037 4.06714 29.9416 4.06714C30.9869 4.06714 31.7815 4.25407 32.3188 4.62464C32.8561 4.99521 33.2502 5.38546 33.4944 5.78883H33.9113V4.39508H36.7738V17.234C36.7738 18.0243 36.5425 18.6539 36.0801 19.1295C35.6177 19.6017 35.0022 19.8378 34.2337 19.8378H26.5711V17.2799H33.2176C33.6475 17.2799 33.8657 17.047 33.8657 16.5814V14.3186H33.4488C33.2958 14.5678 33.0809 14.817 32.8008 15.0728C32.524 15.3286 32.156 15.5418 31.6936 15.7123C31.2311 15.8828 30.6482 15.9681 29.9383 15.9681C29.0004 15.9681 28.1342 15.7386 27.3428 15.2827C26.5515 14.8269 25.9165 14.1677 25.4378 13.3052C24.9623 12.446 24.7246 11.4097 24.7246 10.2029ZM30.772 13.4102C31.6643 13.4102 32.41 13.1249 33.0125 12.551C33.6117 11.9771 33.9113 11.1703 33.9113 10.134V9.90121C33.9113 8.84852 33.6149 8.0385 33.0222 7.47116C32.4295 6.90711 31.6805 6.6218 30.772 6.6218C29.8797 6.6218 29.1339 6.90383 28.5315 7.47116C27.9323 8.0385 27.6327 8.84524 27.6327 9.90121V10.134C27.6327 11.1736 27.9323 11.9771 28.5315 12.551C29.1307 13.1249 29.8764 13.4102 30.772 13.4102Z" fill="white"/>
<path d="M43.7296 16.2463C42.5898 16.2463 41.5868 16.0037 40.7173 15.515C39.8478 15.0264 39.1704 14.3377 38.6852 13.4457C38.2 12.5537 37.959 11.5043 37.959 10.2942V10.0155C37.959 8.80537 38.1967 7.75596 38.6754 6.86396C39.1509 5.97196 39.8217 5.28329 40.6847 4.79466C41.5477 4.30602 42.5474 4.06335 43.6872 4.06335C44.8107 4.06335 45.7877 4.31587 46.6181 4.8209C47.4485 5.32593 48.0966 6.02116 48.5557 6.91316C49.0182 7.80516 49.2494 8.83817 49.2494 10.0155V11.0157H40.9159C40.9452 11.806 41.2383 12.4488 41.7919 12.944C42.3455 13.4392 43.0229 13.6884 43.824 13.6884C44.6381 13.6884 45.2406 13.5113 45.6249 13.1539C46.0091 12.7964 46.3022 12.4029 46.5009 11.9667L48.8781 13.2227C48.6632 13.6261 48.3506 14.0623 47.9435 14.5345C47.5364 15.0067 46.9926 15.4101 46.3152 15.7446C45.6346 16.0791 44.7749 16.2463 43.7296 16.2463ZM40.9355 8.82833H46.2924C46.2306 8.16261 45.9668 7.62806 45.4946 7.2247C45.0257 6.82133 44.4134 6.62129 43.6579 6.62129C42.8731 6.62129 42.2511 6.82133 41.7887 7.2247C41.3262 7.62806 41.0429 8.16261 40.9355 8.82833Z" fill="white"/>
<path d="M50.3984 15.9182V0H53.3065V8.64452H53.7233L57.5107 4.39113H61.298L56.0127 9.96939L61.4836 15.9215H57.7452L53.7299 11.3435H53.313V15.9215H50.3984V15.9182Z" fill="white"/>
<path d="M65.0585 0.00012207H62.1504V2.92863H65.0585V0.00012207Z" fill="white"/>
<path d="M62.1504 15.9191V4.38867H65.0585V15.9191H62.1504Z" fill="white"/>
<path d="M66.6113 15.9187V4.38834H69.4738V5.90016H69.8907C70.0763 5.49679 70.4215 5.1131 70.9295 4.74908C71.4375 4.38507 72.206 4.20142 73.2384 4.20142C74.1307 4.20142 74.9122 4.40802 75.5798 4.81795C76.2506 5.22787 76.7684 5.79521 77.1364 6.5134C77.5044 7.23487 77.69 8.0744 77.69 9.03527V15.9155H74.782V9.2681C74.782 8.39906 74.5703 7.74973 74.1469 7.31685C73.7236 6.88397 73.1211 6.66754 72.3363 6.66754C71.444 6.66754 70.7504 6.96596 70.2586 7.56281C69.7669 8.15966 69.5194 8.99263 69.5194 10.0617V15.9187H66.6113Z" fill="white"/>
<path d="M78.9473 10.2029V9.83234C78.9473 8.62224 79.185 7.58923 79.6637 6.73003C80.1391 5.87082 80.7742 5.21166 81.5688 4.75254C82.3601 4.29671 83.2263 4.06714 84.1642 4.06714C85.2096 4.06714 86.0042 4.25407 86.5415 4.62464C87.0788 4.99521 87.4729 5.38546 87.7204 5.78883H88.1372V4.39508H90.9997V17.234C90.9997 18.0243 90.7685 18.6539 90.306 19.1295C89.8436 19.6017 89.2281 19.8378 88.4596 19.8378H80.797V17.2799H87.4435C87.8734 17.2799 88.0916 17.047 88.0916 16.5814V14.3186H87.6748C87.5217 14.5678 87.3068 14.817 87.03 15.0728C86.7532 15.3286 86.3819 15.5418 85.9227 15.7123C85.4603 15.8828 84.8774 15.9681 84.1675 15.9681C83.2296 15.9681 82.3634 15.7386 81.572 15.2827C80.7807 14.8269 80.1457 14.1677 79.6669 13.3052C79.185 12.446 78.9473 11.4097 78.9473 10.2029ZM84.9946 13.4102C85.8869 13.4102 86.6327 13.1249 87.2351 12.551C87.8343 11.9771 88.1339 11.1703 88.1339 10.134V9.90121C88.1339 8.84852 87.8376 8.0385 87.2449 7.47116C86.6522 6.90711 85.9032 6.6218 84.9946 6.6218C84.1024 6.6218 83.3566 6.90383 82.7541 7.47116C82.1549 8.0385 81.8553 8.84524 81.8553 9.90121V10.134C81.8553 11.1736 82.1549 11.9771 82.7541 12.551C83.3566 13.1249 84.1024 13.4102 84.9946 13.4102Z" fill="white"/>
</g>
<defs>
<clipPath id="clip0_2409_5365">
<rect width="91" height="20" fill="white"/>
</clipPath>
</defs>
</svg>
